<svg xmlns="http://www.w3.org/2000/svg" xmlns:ev="http://www.w3.org/2001/xml-events" xmlns:xlink="http://www.w3.org/1999/xlink" width="200mm" height="300mm" baseProfile="full" version="1.1" viewBox="0 0 200 300"><rect width="200" height="300" x="0" y="0" fill="#222"/><text fill="#FFF" style="font-size:12px;font-family:Arial;font-weight:700" x="10" y="20">Over 10km Runs</text><text fill="#FFF" style="font-size:4px;font-family:Arial" x="10" y="280">ATHLETE</text><text fill="#FFF" style="font-size:9px;font-family:Arial" x="10" y="290">TimWang</text><text fill="#FFF" style="font-size:4px;font-family:Arial" x="120" y="280">STATISTICS</text><text fill="#FFF" style="font-size:3px;font-family:Arial" x="120" y="285">Number: 3</text><text fill="#FFF" style="font-size:3px;font-family:Arial" x="120" y="290">Weekly: 1.0</text><text fill="#FFF" style="font-size:3px;font-family:Arial" x="141" y="285">Total: 47.6 km</text><text fill="#FFF" style="font-size:3px;font-family:Arial" x="141" y="290">Avg: 15.9 km</text><text fill="#FFF" style="font-size:3px;font-family:Arial" x="167" y="285">Min: 13.1 km</text><text fill="#FFF" style="font-size:3px;font-family:Arial" x="167" y="290">Max: 19.7 km</text><polyline fill="none" stroke="#4dd2ff" stroke-linecap="round" stroke-linejoin="round" stroke-width=".5" points="52.696 47.936 52.939 48.539 53.726 62.476 54.413 62.644 57.676 62.359 57.977 62.861 58.635 77.149 60.009 82.927 62.099 94.266 62.571 98.888 62.528 99.189 62.328 99.055 62.256 99.273 62.285 100.261 62.929 105.704 62.886 105.955 62.528 105.989 60.009 108.567 59.966 109.505 59.422 110.108 57.705 109.89 56.989 110.309 55.916 109.773 56.073 110.242 55.401 113.139 53.569 113.658 52.367 113.156 52.295 112.787 51.837 113.323 51.909 113.842 50.406 113.892 49.476 114.546 48.832 115.5 48.889 115.333 46.256 112.921 46.213 112.369 46.671 112.586 47.3 111.414 48.417 111.481 48.617 111.23 48.431 110.208 48.889 109.823 50.234 109.622 51.265 109.974 52.123 109.673 52.925 109.823 53.197 109.087 54.27 108.283 54.971 108.299 55.301 107.881 55.902 107.998 56.059 106.759 55.429 106.658 62.557 106.491 63.573 106.055 63.787 105.436 62.471 90.866 61.455 86.394 60.582 79.829 59.451 73.866 58.793 61.203 59.022 58.255 57.977 44.837 57.132 41.654 56.245 39.66 55.129 36.092 54.914 35.757 54.556 35.824 53.368 35.237 53.426 34.5 53.955 34.584 53.526 34.718 53.24 35.22 54.213 36.125 56.374 41.536 56.946 43.228 57.547 46.411 57.347 46.646 53.097 47.835"><title>2023-10-06 13.1km</title><desc>1696557211000</desc></polyline><polyline fill="none" stroke="#4dd2ff" stroke-linecap="round" stroke-linejoin="round" stroke-width=".5" points="184.841 107.849 185.489 113.105 185.5 113.298 185.42 113.331 185.472 113.53 185.216 113.604 185.159 113.524 104.5 36.423 104.568 36.396"><title>2023-09-04 19.7km</title><desc>1693822910000</desc></polyline><polyline fill="none" stroke="#4dd2ff" stroke-linecap="round" stroke-linejoin="round" stroke-width=".5" points="84.524 202.017 82.969 201.946 82.99 202.962 82.565 203.482 80.728 203.884 80.162 203.411 79.274 192.868 79.395 187.999 79.132 186.793 79.577 185.54 84.1 185.044 87.17 185.091 87.735 184.736 15.621 265.193 15.843 265.5 88.947 184.5 90.159 186.344 91.774 192.396 93.188 194.83 94.379 200.031 93.955 200.48 93.45 200.362 92.36 200.977 91.148 201.166 88.624 202.655 87.776 202.702 87.291 202.3 86.928 202.489 86.645 240.355 86.18 240 86.705 241.158 86.423 240.733"><title>2022-12-13 14.8km</title><desc>1670928385000</desc></polyline></svg>