<?xml version="1.0" encoding="utf-8" ?>
<svg baseProfile="full" height="300mm" version="1.1" viewBox="0,0,200,300" width="200mm" xmlns="http://www.w3.org/2000/svg" xmlns:ev="http://www.w3.org/2001/xml-events" xmlns:xlink="http://www.w3.org/1999/xlink"><defs /><rect fill="#222222" height="300" width="200" x="0" y="0" /><text fill="#FFFFFF" style="font-size:12px; font-family:Arial; font-weight:bold;" x="10" y="20">Over 10km Runs</text><text fill="#FFFFFF" style="font-size:4px; font-family:Arial" x="10" y="280">ATHLETE</text><text fill="#FFFFFF" style="font-size:9px; font-family:Arial" x="10" y="290">TimWang</text><text fill="#FFFFFF" style="font-size:4px; font-family:Arial" x="120" y="280">STATISTICS</text><text fill="#FFFFFF" style="font-size:3px; font-family:Arial" x="120" y="285">Number: 3</text><text fill="#FFFFFF" style="font-size:3px; font-family:Arial" x="120" y="290">Weekly: 1.0</text><text fill="#FFFFFF" style="font-size:3px; font-family:Arial" x="141" y="285">Total: 47.6 km</text><text fill="#FFFFFF" style="font-size:3px; font-family:Arial" x="141" y="290">Avg: 15.9 km</text><text fill="#FFFFFF" style="font-size:3px; font-family:Arial" x="167" y="285">Min: 13.1 km</text><text fill="#FFFFFF" style="font-size:3px; font-family:Arial" x="167" y="290">Max: 19.7 km</text><polyline fill="none" points="52.69581994100008,47.935878429343575 52.93911845656112,48.5389583564247 53.72626071271952,62.47616334394843 54.413221227237955,62.64367034030147 57.67628367099678,62.358908340655034 57.97682889614953,62.861429169759504 58.6351660558139,77.14910189360671 60.00908708490897,82.92745332380582 62.0985919830855,94.26580649752577 62.57087733683875,98.88800340436865 62.52794230467407,99.1894463289209 62.32757882127771,99.0554717668274 62.25602043431718,99.27318037243094 62.284643789113034,100.26123873336473 62.92866927146679,105.70382227317896 62.88573423930211,105.95501390806749 62.52794230467407,105.98850609592046 60.00908708490897,108.56738322690944 59.96615205274429,109.50514628831297 59.42230831203051,110.10799103026511 57.704907025792636,109.8902973610966 56.989323156594764,110.30893876626214 55.91594735265244,109.7730775688251 56.07337580388412,110.241956215963 55.40072696679272,113.13892555936764 53.56883226148784,113.65803005910129 52.36665136110969,113.15567089246179 52.295092974207364,112.78727315473952 51.837119297881145,113.32312412557076 51.90867768478347,113.84222801985743 50.40595155936899,113.89246379004908 49.475692529347725,114.54552734857134 48.83166704699397,115.5 48.888913756469265,115.33254907485389 46.25556511763716,112.92123606790847 46.21263008547248,112.36863831886149 46.67060376185691,112.5863285720261 47.300317566725425,111.41414674391854 48.41662840283243,111.48112879697874 48.61699188622879,111.2299459513888 48.43094008020125,110.20846493024146 48.888913756469265,109.82331463330775 50.234211430710275,109.62236627945094 51.26465220248792,109.97402573094587 52.12335284560686,109.6726033918676 52.92480677913409,109.82331463330775 53.19672864943277,109.0865027525142 54.27010445331689,108.28270405298099 54.971376645204145,108.2994499009219 55.30054522509454,107.88080316904234 55.90163567522541,107.99802436582104 56.059064126515295,106.75882445495517 55.42935032158857,106.65834836033173 62.556565659469925,106.49088806059444 63.572694753762335,106.05549045019143 63.787369914585724,105.43588408887445 62.47069559514057,90.86606081476202 61.454566500731744,86.3943626574619 60.58155418030219,79.82894335122546 59.450931666826364,73.86623410193715 58.79259450704558,61.20310436077125 59.021581345296,58.25492833572207 57.97682889614953,44.83668132807361 57.132439930399414,41.65365876625583 56.24511593254283,39.66004876716761 55.128805096435826,36.091591486678226 54.91412993572885,35.756520929338876 54.556338001042604,35.82353509776294 53.368468778033275,35.23716015883838 53.425715487624984,34.5 53.955247550911736,34.58376837335527 53.525897229323164,34.71779767825501 53.23966368159745,35.22040655712772 54.21285774378339,36.1250985032093 56.373921029036865,41.53638828729163 56.94638812437188,43.228425324035925 57.54747857461916,46.41141611224157 57.347115091222804,46.64594973520434 53.0965469077928,47.83536488401296" stroke="#4dd2ff" stroke-linecap="round" stroke-linejoin="round" stroke-width="0.5"><title>2023-10-06 13.1km</title><desc>1696557211000</desc></polyline><polyline fill="none" points="184.84077036415692,107.84939810629294 185.48863397180685,113.10526392039901 185.5,113.29794849854807 185.42043780258973,113.33116991783027 185.47158492950257,113.53049806475246 185.21584929490928,113.60358489358259 185.1590191538562,113.52385380338092 104.5,36.42302483738604 104.56819616918801,36.396415106421045" stroke="#4dd2ff" stroke-linecap="round" stroke-linejoin="round" stroke-width="0.5"><title>2023-09-04 19.7km</title><desc>1693822910000</desc></polyline><polyline fill="none" points="84.52435707731638,202.01664938863541 82.96938067860901,201.94573455867067 82.98957517731469,202.9621782957256 82.56549070496112,203.48221748277138 80.7277913246071,203.88406511343783 80.1623453614302,203.41130311973393 79.27378741942812,192.86844981150352 79.39495441142935,187.99871220617206 79.13242592848837,186.79308110252896 79.57670489954762,185.5401634278096 84.10027260507923,185.04372239818622 87.16983640519902,185.0910025439225 87.73528236837592,184.73640120588243 15.62072756420821,265.1927898268332 15.842867049737833,265.5 88.94695228943601,184.5 90.1586222104961,186.34392274709535 91.7741821053205,192.39566442245268 93.18779701332096,194.83049844515335 94.37927243567538,200.03102561144624 93.95518796343822,200.48015634913463 93.45032549626194,200.36196413756988 92.35982256720308,200.97656295230263 91.14815264614299,201.16566993850574 88.62384031049442,202.65488184137212 87.77567136567086,202.7021582466259 87.29100339731667,202.30030848241586 86.92750242096372,202.48941434411972 86.64477943931706,240.35462710348656 86.18030596966855,240.00011377217015 86.7053629354341,241.15818856525584 86.42263995378744,240.7327740348701" stroke="#4dd2ff" stroke-linecap="round" stroke-linejoin="round" stroke-width="0.5"><title>2022-12-13 14.8km</title><desc>1670928385000</desc></polyline></svg>