<?xml version="1.0" encoding="utf-8" ?>
<svg baseProfile="full" height="200mm" version="1.1" viewBox="0,0,200,200" width="200mm" xmlns="http://www.w3.org/2000/svg" xmlns:ev="http://www.w3.org/2001/xml-events" xmlns:xlink="http://www.w3.org/1999/xlink"><defs /><rect fill="#1a1a1a" height="200" width="200" x="0" y="0" /><text alignment-baseline="middle" fill="#e1ed5e" style="dominant-baseline: central; font-size:9.0px; font-family:Arial;" text-anchor="middle" x="100.0" y="100.0">2024</text><line stroke="#e1ed5e" stroke-width="0.3" x1="100.0" x2="100.0" y1="15.0" y2="10.0" /><path d="M 100.0 14.0 a86.0,86.0 0 0,1 42.35913384403234,11.155469271406648" fill="none" id="id37" stroke="none" /><text fill="#e1ed5e" style="font-size:6.75px; font-family:Arial;" text-anchor="middle"><textPath startOffset="22.145653131862478" xlink:href="#id37">January</textPath></text><path d="M 108.4095320186766 80.7573450057729 l 2.1804224561798153 -4.989233285841775 a26.444877488792997,26.444877488792997 0 0,0 0.4144121306993618,0.18536127495232407 l -2.265747989734809 4.951068259979598" fill="#ff0000" stroke="none" /><line stroke="#e1ed5e" stroke-width="0.3" x1="143.13028292997686" x2="145.6673583964461" y1="26.7553504044142" y2="22.446841604673864" /><path d="M 143.63769802327073 25.89364864446614 a86.0,86.0 0 0,1 29.32050498858742,28.57503671076993" fill="none" id="id38" stroke="none" /><text fill="#e1ed5e" style="font-size:6.75px; font-family:Arial;" text-anchor="middle"><textPath startOffset="20.669276256404974" xlink:href="#id38">February</textPath></text><path d="M 115.16444852881244 85.47280134310134 l 8.909210451569471 -8.534822078109764 a33.3376342454842,33.3376342454842 0 0,0 0.39234294384789054,0.4166546101416284 l -9.054409229153622 8.38062600802364" fill="#ff6909" stroke="none" /><path d="M 115.41159269507618 85.73525988315684 l 8.264084725348512 -7.649113446161378 a32.26072967706735,32.26072967706735 0 0,0 0.3726917710559626,0.40965354237930235 l -8.394174197246352 7.5061223282244045" fill="#ff5908" stroke="none" /><line stroke="#e1ed5e" stroke-width="0.3" x1="172.87174338648825" x2="177.1583165268699" y1="56.24261187166439" y2="53.66864786411523" /><path d="M 173.72905801456457 55.72781907015455 a86.0,86.0 0 0,1 12.242430191666344,42.057860355516425" fill="none" id="id39" stroke="none" /><text fill="#e1ed5e" style="font-size:6.75px; font-family:Arial;" text-anchor="middle"><textPath startOffset="22.145653131862474" xlink:href="#id39">March</textPath></text><path d="M 118.36410011445183 89.81374322990088 l 5.188780894712963 -2.8781292950879003 a26.933555039989216,26.933555039989216 0 0,0 0.22079698816787172,0.4062415893458248 l -5.237423232496176 2.7886328722674723" fill="#ff0801" stroke="none" /><path d="M 119.0197475246899 91.09779779509293 l 14.828771957597016 -6.940614024745666 a37.372678486152225,37.372678486152225 0 0,0 0.26697535061429684,0.583389322471854 l -14.945731773066365 6.685035720059127" fill="#ffa30f" stroke="none" /><path d="M 119.58574465831526 92.42381321644754 l 16.71592569253221 -6.466079156854534 a38.92295599004157,38.92295599004157 0 0,0 0.23570503319877187,0.6252356040022777 l -16.82446140954542 6.178175272658099" fill="#ffb911" stroke="none" /><path d="M 119.94978838288452 93.4421083053983 l 20.349179251158674 -6.689179405914049 a42.420415899797355,42.420415899797355 0 0,0 0.22146544542958294,0.6937373535086027 l -20.461009412365513 6.338873018714059" fill="#ffe815" stroke="none" /><path d="M 120.35273937422433 94.82641323984039 l 13.345832181802884 -3.3924583521435134 a34.77025817825773,34.77025817825773 0 0,0 0.14208199323540238,0.5797430179995093 l -13.402101701554578 3.162859509535909" fill="#ff7e0b" stroke="none" /><path d="M 120.43855184770803 95.1765574152323 l 5.692406131371889 -1.3433923473854619 a26.84877684336598,26.84877684336598 0 0,0 0.10201146536012612,0.44948133875525753 l -5.714628458289682 1.245476674691178" fill="#ff0601" stroke="none" /><path d="M 120.65975698304385 96.23510406497455 l 9.992150842144884 -1.820902739496303 a31.156710355173168,31.156710355173168 0 0,0 0.09137103302690154,0.5270038375920297 l -10.02193669266402 1.6491058689836806" fill="#ff4906" stroke="none" /><path d="M 120.77682067341334 96.94652285012252 l 15.80787414580348 -2.323213125390087 a36.97767831180572,36.97767831180572 0 0,0 0.08690719951166684,0.6288172028934258 l -15.845425861870359 2.051507614296576" fill="#ff9d0e" stroke="none" /><path d="M 120.86939407059847 97.66154086499901 l 15.64695002528024 -1.7532733867472163 a36.744872583234624,36.744872583234624 0 0,0 0.06485926262983477,0.6274545303637065 l -15.67474168039174 1.4844143341005784" fill="#ff9a0e" stroke="none" /><path d="M 120.93736805541906 98.37931529534042 l 15.354459497262884 -1.1885322734768569 a36.40039075537314,36.40039075537314 0 0,0 0.042876260920556165,0.6234114237391302 l -15.372599719348505 0.9247774255833926" fill="#ff950d" stroke="none" /><path d="M 120.98066250479742 99.09900007780936 l 16.178629250074184 -0.6947799523554097 a37.19354079852677,37.19354079852677 0 0,0 0.021918176622727038,0.6381237975422864 l -16.18817211369376 0.4169498902490033" fill="#ffa10e" stroke="none" /><line stroke="#e1ed5e" stroke-width="0.3" x1="184.99686870605535" x2="189.99668451229388" y1="99.2704041080226" y2="99.22748670261217" /><path d="M 185.99683186730306 99.26182062694052 a86.0,86.0 0 0,1 -10.086455211305974,41.156179273409016" fill="none" id="id40" stroke="none" /><text fill="#e1ed5e" style="font-size:6.75px; font-family:Arial;" text-anchor="middle"><textPath startOffset="21.40746469413373" xlink:href="#id40">April</textPath></text><path d="M 120.99922638620191 99.81974689727618 l 16.453141617227487 -0.14123043256529244 a37.453747752765196,37.453747752765196 0 0,0 0.0,0.6429670705782367 l -16.453141617227487 -0.14123043256529044" fill="#ffa40f" stroke="none" /><path d="M 120.98066250479742 100.90099992219065 l 16.204180068370544 0.6958772144314616 a37.21911516654784,37.21911516654784 0 0,0 -0.03289179139637607,0.6380919659770068 l -16.189846687517594 -0.9739409737851991" fill="#ffa10e" stroke="none" /><path d="M 120.96210409425399 101.26102812881392 l 19.52900009440112 1.1748161508939305 a40.564305192761644,40.564305192761644 0 0,0 -0.047780963264774455,0.6947247193898494 l -19.50595516997128 -1.5098842944381234" fill="#ffcf13" stroke="none" /><path d="M 120.93736805541906 101.62068470465957 l 11.520713565873892 0.8917760920835147 a32.55517657438961,32.55517657438961 0 0,0 -0.04791250334998836,0.5568159154518951 l -11.503707439826163 -1.0894130549110672" fill="#ff5d08" stroke="none" /><path d="M 120.86939407059847 102.33845913500097 l 21.403817647793595 2.3983424115266043 a42.53776813467282,42.53776813467282 0 0,0 -0.08754255209289133,0.7249779135697783 l -21.35949300944104 -2.7654140020197913" fill="#ffea16" stroke="none" /><path d="M 120.77682067341334 103.0534771498775 l 15.416300445119784 2.265665275970537 a36.58189842596014,36.58189842596014 0 0,0 -0.09664329235341564,0.6205192641290604 l -15.3751356606281 -2.529972722031048" fill="#ff980e" stroke="none" /><path d="M 120.592083275326 104.11899336999214 l 10.848942816712494 2.1700924057065856 a32.063853817255676,32.063853817255676 0 0,0 -0.11259342763225585,0.5388003104999555 l -10.810091678255873 -2.3560091674919503" fill="#ff5608" stroke="none" /><path d="M 120.51834098615036 104.47187691870673 l 16.291206334829624 3.5505925959505107 a37.673635225301396,37.673635225301396 0 0,0 -0.14314032841036364,0.6307026981391237 l -16.2278551448616 -3.8297296280286512" fill="#ffa70f" stroke="none" /><path d="M 120.35273937422433 105.17358676015961 l 15.9537588230971 4.055383106142701 a37.461122462430566,37.461122462430566 0 0,0 -0.16377738585301577,0.6218894104038665 l -15.881791956439354 -4.32865302091937" fill="#ffa40f" stroke="none" /><path d="M 120.05942366710727 106.21446072829308 l 19.202903043263294 5.9491084495743385 a41.103317552925624,41.103317552925624 0 0,0 -0.21458923344822622,0.6721977174138649 l -19.097949094037816 -6.277875200679587" fill="#ffd714" stroke="none" /><path d="M 119.94978838288452 106.5578916946017 l 22.204992884117964 7.299222208210313 a44.37392465608974,44.37392465608974 0 0,0 -0.24408739046799266,0.7216009984316386 l -22.076420072077603 -7.679324881116112" fill="#fcff18" stroke="none" /><path d="M 119.71291397450082 107.23885506374661 l 14.570285681464048 5.350410721719364 a36.52160171279259,36.52160171279259 0 0,0 -0.22116319599129464,0.5866616531352512 l -14.476291801658313 -5.599740655048774" fill="#ff970d" stroke="none" /><path d="M 119.4528033332814 107.91128576633889 l 21.04173672827801 8.557491145385237 a43.71531067904444,43.71531067904444 0 0,0 -0.28867541853531636,0.6927159158885966 l -20.891735465206207 -8.91743957071511" fill="#fff917" stroke="none" /><path d="M 119.16976305983485 108.57439118712176 l 20.72316242229488 9.269206963507923 a43.701710475494096,43.701710475494096 0 0,0 -0.31218740398717376,0.6821858185681292 l -20.56099055345265 -9.62358176429074" fill="#fff917" stroke="none" /><path d="M 118.8641267826498 109.22738970284198 l 26.67434733091275 13.047759948140062 a50.69452550882839,50.69452550882839 0 0,0 -0.389092762914429,0.778446168737692 l -26.44643465478659 -13.5037379730415" fill="#adff20" stroke="none" /><path d="M 118.70294669586154 109.54985784667822 l 10.370862983528161 5.295436534713862 a32.64458874826831,32.64458874826831 0 0,0 -0.25912331123654714,0.4969031159853543 l -10.278431603316664 -5.472685893803719" fill="#ff5f08" stroke="none" /><line stroke="#e1ed5e" stroke-width="0.3" x1="174.33088141563837" x2="178.70328620479359" y1="141.23008692659167" y2="143.65538615756765" /><path d="M 175.20536237346943 141.71514677278685 a86.0,86.0 0 0,1 -30.301960400862466,31.631185727798858" fill="none" id="id41" stroke="none" /><text fill="#e1ed5e" style="font-size:6.75px; font-family:Arial;" text-anchor="middle"><textPath startOffset="22.145653131862474" xlink:href="#id41">May</textPath></text><path d="M 118.00360718960297 110.81064883170644 l 54.010821568808936 32.43194649511934 a84.0,84.0 0 0,0 -0.7529281421783813,1.2298515355017718 l -53.44612546217515 -33.35433514674567" fill="#4dd2ff" stroke="none" /><path d="M 117.423217284605 111.72311816256416 l 13.712444420800944 9.226344573265619 a37.52744887083856,37.52744887083856 0 0,0 -0.3642132967150103,0.5313980845534422 l -13.552041387270613 -9.460377392889106" fill="#ffa50f" stroke="none" /><path d="M 116.79662413953412 112.60449989151573 l 22.957194648019954 17.227506851772606 a49.70226085929379,49.70226085929379 0 0,0 -0.5179638814322379,0.6780313476587702 l -22.65807878923341 -17.619059112672254" fill="#b9ff1f" stroke="none" /><path d="M 116.57777611688842 112.89097897827486 l 14.31353420836114 11.130290775059299 a39.131757616714786,39.131757616714786 0 0,0 -0.4169089431836598,0.5267508303719034 l -14.120358834535919 -11.374361549345885" fill="#ffbc11" stroke="none" /><path d="M 115.89218393027572 113.72728997021213 l 17.209895731655262 14.865498039919112 a43.741230025424855,43.741230025424855 0 0,0 -0.4957108949949349,0.5640280021103365 l -16.95217377270174 -15.158738319840742" fill="#fffa17" stroke="none" /><path d="M 114.65682725009322 115.03919595460226 l 7.337029187562473 7.52843830343204 a31.512344200402037,31.512344200402037 0 0,0 -0.3906442966784434,0.3742283994864557 l -7.206712405018718 -7.653278833224076" fill="#ff4e07" stroke="none" /><path d="M 114.39649973595853 115.28858382429668 l 13.413209248099108 14.24436340106952 a40.56568606093383,40.56568606093383 0 0,0 -0.5110701351403368,0.47303888725179943 l -13.166709341644804 -14.4725200344537" fill="#ffcf13" stroke="none" /><path d="M 114.13192950727249 115.5334660781643 l 7.404915262315203 8.13929902350994 a32.003679322671054,32.003679322671054 0 0,0 -0.40954799544434384,0.36622034292459393 l -7.264102240047482 -8.265214896317922" fill="#ff5507" stroke="none" /><path d="M 113.86319453409587 115.77377054828091 l 8.712173464956383 9.912854131495887 a34.19722105277491,34.19722105277491 0 0,0 -0.44427160182298464,0.38375122830892816 l -8.540722383370543 -10.060949492269534" fill="#ff760a" stroke="none" /><path d="M 113.31354834802062 116.24036423190432 l 12.90352737275828 15.740205310562287 a41.35325727931958,41.35325727931958 0 0,0 -0.5528521487842866,0.4453385567104036 l -12.63142445361874 -15.959392161066093" fill="#ffda14" stroke="none" /><line stroke="#e1ed5e" stroke-width="0.3" x1="143.1302829299769" x2="145.66735839644613" y1="173.24464959558577" y2="177.55315839532614" /><path d="M 143.63769802327073 174.10635135553383 a86.0,86.0 0 0,1 -40.68552437913181,11.842963189579606" fill="none" id="id42" stroke="none" /><text fill="#e1ed5e" style="font-size:6.75px; font-family:Arial;" text-anchor="middle"><textPath startOffset="21.407464694133747" xlink:href="#id42">June</textPath></text><line stroke="#e1ed5e" stroke-width="0.3" x1="101.45913802915013" x2="101.54496967792366" y1="184.9874750549273" y2="189.98673829345242" /><path d="M 101.47630435890484 185.9873277026323 a86.0,86.0 0 0,1 -42.54439059252881,-10.42667462771756" fill="none" id="id43" stroke="none" /><text fill="#e1ed5e" style="font-size:6.75px; font-family:Arial;" text-anchor="middle"><textPath startOffset="22.145653131862474" xlink:href="#id43">July</textPath></text><line stroke="#e1ed5e" stroke-width="0.3" x1="58.13341422392154" x2="55.67067388415222" y1="173.97424548756322" y2="178.32567169271397" /><path d="M 57.64086615596768 174.84453072859336 a86.0,86.0 0 0,1 -31.369924170532247,-30.572349798747897" fill="none" id="id44" stroke="none" /><text fill="#e1ed5e" style="font-size:6.75px; font-family:Arial;" text-anchor="middle"><textPath startOffset="22.145653131862474" xlink:href="#id44">August</textPath></text><line stroke="#e1ed5e" stroke-width="0.3" x1="26.387840678322732" x2="22.057713659400548" y1="142.50000000000003" y2="145.00000000000006" /><path d="M 25.521815274538298 143.00000000000003 a86.0,86.0 0 0,1 -11.493303480769221,-40.785679425670985" fill="none" id="id45" stroke="none" /><text fill="#e1ed5e" style="font-size:6.75px; font-family:Arial;" text-anchor="middle"><textPath startOffset="21.40746469413373" xlink:href="#id45">September</textPath></text><line stroke="#e1ed5e" stroke-width="0.3" x1="15.003131293944662" x2="10.003315487706104" y1="100.72959589197737" y2="100.7725132973878" /><path d="M 14.003168132696942 100.73817937305945 a86.0,86.0 0 0,1 10.791469493833604,-42.45332614584628" fill="none" id="id46" stroke="none" /><text fill="#e1ed5e" style="font-size:6.75px; font-family:Arial;" text-anchor="middle"><textPath startOffset="22.145653131862435" xlink:href="#id46">October</textPath></text><line stroke="#e1ed5e" stroke-width="0.3" x1="26.387840678322718" x2="22.05771365940052" y1="57.49999999999999" y2="54.99999999999999" /><path d="M 25.521815274538284 56.99999999999999 a86.0,86.0 0 0,1 29.574782752854787,-30.34633250058573" fill="none" id="id47" stroke="none" /><text fill="#e1ed5e" style="font-size:6.75px; font-family:Arial;" text-anchor="middle"><textPath startOffset="21.40746469413373" xlink:href="#id47">November</textPath></text><line stroke="#e1ed5e" stroke-width="0.3" x1="56.869717070023135" x2="54.33264160355391" y1="26.7553504044142" y2="22.446841604673864" /><path d="M 56.362301976729285 25.89364864446614 a86.0,86.0 0 0,1 42.16139366436587,-11.88097634709845" fill="none" id="id48" stroke="none" /><text fill="#e1ed5e" style="font-size:6.75px; font-family:Arial;" text-anchor="middle"><textPath startOffset="22.145653131862474" xlink:href="#id48">December</textPath></text></svg>