<?xml version="1.0" encoding="utf-8" ?>
<svg baseProfile="full" height="200mm" version="1.1" viewBox="0,0,200,200" width="200mm" xmlns="http://www.w3.org/2000/svg" xmlns:ev="http://www.w3.org/2001/xml-events" xmlns:xlink="http://www.w3.org/1999/xlink"><defs /><rect fill="#1a1a1a" height="200" width="200" x="0" y="0" /><text alignment-baseline="middle" fill="#e1ed5e" style="dominant-baseline: central; font-size:9.0px; font-family:Arial;" text-anchor="middle" x="100.0" y="100.0">2021</text><line stroke="#e1ed5e" stroke-width="0.3" x1="100.0" x2="100.0" y1="15.0" y2="10.0" /><path d="M 100.0 14.0 a86.0,86.0 0 0,1 42.46469731375804,11.215312516191453" fill="none" id="id1" stroke="none" /><text fill="#e1ed5e" style="font-size:6.75px; font-family:Arial;" text-anchor="middle"><textPath startOffset="22.20632615414155" xlink:href="#id1">January</textPath></text><line stroke="#e1ed5e" stroke-width="0.3" x1="143.23703022742887" x2="145.7803849466894" y1="26.81831364943548" y2="22.513508569990506" /><path d="M 143.74570117128098 25.957352633546492 a86.0,86.0 0 0,1 28.547481713284135,27.462654790039103" fill="none" id="id2" stroke="none" /><text fill="#e1ed5e" style="font-size:6.75px; font-family:Arial;" text-anchor="middle"><textPath startOffset="19.985693538727396" xlink:href="#id2">February</textPath></text><line stroke="#e1ed5e" stroke-width="0.3" x1="172.23445277983987" x2="176.4835382374775" y1="55.19839476539836" y2="52.563006222186495" /><path d="M 173.08426987136738 54.67131705675599 a86.0,86.0 0 0,1 12.851231095245387,41.99856678651699" fill="none" id="id3" stroke="none" /><text fill="#e1ed5e" style="font-size:6.75px; font-family:Arial;" text-anchor="middle"><textPath startOffset="22.20632615414155" xlink:href="#id3">March</textPath></text><line stroke="#e1ed5e" stroke-width="0.3" x1="184.98032266829074" x2="189.97916517819016" y1="98.17113171792111" y2="98.06355123074" /><path d="M 185.9800911702706 98.14961562048488 a86.0,86.0 0 0,1 -9.607161424134198,41.387399972396054" fill="none" id="id4" stroke="none" /><text fill="#e1ed5e" style="font-size:6.75px; font-family:Arial;" text-anchor="middle"><textPath startOffset="21.466115282336823" xlink:href="#id4">April</textPath></text><line stroke="#e1ed5e" stroke-width="0.3" x1="174.80103733775053" x2="179.2010983576182" y1="140.37084112569926" y2="142.7455964860345" /><path d="M 175.68104954172406 140.8457921977663 a86.0,86.0 0 0,1 -30.038265399797805,32.042727171017184" fill="none" id="id5" stroke="none" /><text fill="#e1ed5e" style="font-size:6.75px; font-family:Arial;" text-anchor="middle"><textPath startOffset="22.206326154141568" xlink:href="#id5">May</textPath></text><line stroke="#e1ed5e" stroke-width="0.3" x1="143.8653032363475" x2="146.44561519142675" y1="172.8068346515853" y2="177.08958963109032" /><path d="M 144.38136562736335 173.6633856474863 a86.0,86.0 0 0,1 -40.68145358897372,12.25698825130547" fill="none" id="id6" stroke="none" /><text fill="#e1ed5e" style="font-size:6.75px; font-family:Arial;" text-anchor="middle"><textPath startOffset="21.466115282336833" xlink:href="#id6">June</textPath></text><line stroke="#e1ed5e" stroke-width="0.3" x1="102.19456741930631" x2="102.32365962044197" y1="184.97166512339345" y2="189.96999836594603" /><path d="M 102.22038585953345 185.97133177190398 a86.0,86.0 0 0,1 -42.740103519485714,-10.115201625700543" fill="none" id="id7" stroke="none" /><text fill="#e1ed5e" style="font-size:6.75px; font-family:Arial;" text-anchor="middle"><textPath startOffset="22.20632615414155" xlink:href="#id7">July</textPath></text><line stroke="#e1ed5e" stroke-width="0.3" x1="58.666819895761336" x2="56.23545636021788" y1="174.27360380694188" y2="178.64263932499728" /><path d="M 58.180547188652646 175.14741091055294 a86.0,86.0 0 0,1 -31.652253787137756,-30.449443065178592" fill="none" id="id8" stroke="none" /><text fill="#e1ed5e" style="font-size:6.75px; font-family:Arial;" text-anchor="middle"><textPath startOffset="22.20632615414155" xlink:href="#id8">August</textPath></text><line stroke="#e1ed5e" stroke-width="0.3" x1="26.63291911575756" x2="22.317208475507996" y1="142.92168965132927" y2="145.44649492493687" /><path d="M 25.769776987707644 143.4266507060508 a86.0,86.0 0 0,1 -11.730757126820373,-40.83630448921669" fill="none" id="id9" stroke="none" /><text fill="#e1ed5e" style="font-size:6.75px; font-family:Arial;" text-anchor="middle"><textPath startOffset="21.46611528233685" xlink:href="#id9">September</textPath></text><path d="M 79.67330655649465 105.27499134158121 l -21.746103507405063 5.643343224194788 a43.466426963378936,43.466426963378936 0 0,0 -0.181707642638327,-0.7258317074725502 l 21.84002246433845 -5.268183677324846" fill="#ff860c" stroke="none" /><path d="M 79.58551787078972 104.9243191809786 l -50.40637013227027 12.158871026695374 a72.85210019425675,72.85210019425675 0 0,0 -0.28356616384043043,-1.2215956122085632 l 50.608196862041254 -11.289406757138236" fill="#3bff9c" stroke="none" /><path d="M 79.10278846688536 102.07522291339032 l -42.74643261018142 4.244986288135726 a63.9566922549123,63.9566922549123 0 0,0 -0.09936251931425535,-1.0964571208876284 l 42.81316972577275 -3.5085477786995316" fill="#44ff2d" stroke="none" /><path d="M 79.07016306316243 101.71520430193888 l -58.65691562969774 4.806945908376731 a79.8535511261261,79.8535511261261 0 0,0 -0.10047645826789006,-1.3709214441475148 l 58.73096864662997 -3.796551327732455" fill="#46fffa" stroke="none" /><path d="M 79.0235259727143 100.99374915477108 l -43.17797595833844 2.0455333464294796 a64.2264018226154,64.2264018226154 0 0,0 -0.0428110781027791,-1.1047636990833518 l 43.20678916929243 -1.301992400332131" fill="#40ff2d" stroke="none" /><path d="M 79.0095281055655 100.63252640178507 l -22.899278533973465 0.6900463375675183 a43.909673095103045,43.909673095103045 0 0,0 -0.01626317546931077,-0.7556858591379245 l 22.907763772127783 -0.2957706626394649" fill="#ff8d0d" stroke="none" /><line stroke="#e1ed5e" stroke-width="0.3" x1="15.007084014347285" x2="10.007500721073583" y1="101.09737516637583" y2="101.16192664675087" /><path d="M 14.007167355692545 101.11028546245083 a86.0,86.0 0 0,1 10.666146001902534,-42.60595125391555" fill="none" id="id10" stroke="none" /><text fill="#e1ed5e" style="font-size:6.75px; font-family:Arial;" text-anchor="middle"><textPath startOffset="22.20632615414155" xlink:href="#id10">October</textPath></text><path d="M 79.16333360222342 97.38593545837743 l -62.50999919332974 -7.842193624867687 a84.0,84.0 0 0,0 0.19233600376866455,-1.4331266317413625 l 62.36574719050324 8.91703859867371" fill="#4dd2ff" stroke="none" /><path d="M 79.21141760316559 97.0276538004421 l -41.45169090159257 -5.926752174085677 a62.873250052201605,62.873250052201605 0 0,0 0.16240491788804862,-1.0700454940690856 l 41.34353009026522 6.639396780546854" fill="#52ff2b" stroke="none" /><path d="M 79.32604984820605 96.31383870115002 l -29.29410628890186 -5.223133464756756 a50.756105028315474,50.756105028315474 0 0,0 0.16076217062444936,-0.8587979437701255 l 29.19985839436755 5.726609485989455" fill="#fffe18" stroke="none" /><path d="M 79.3925641242962 95.95851677861259 l -29.809332280388453 -5.846138111437289 a51.3771891691876,51.3771891691876 0 0,0 0.17766893577975804,-0.8663768287003478 l 29.7042840486937 6.358390596301039" fill="#f6ff19" stroke="none" /><path d="M 79.81627453868168 94.20196356495316 l -56.87559801694202 -16.338251835584025 a80.17577310714026,80.17577310714026 0 0,0 0.3924569842820864,-1.3231698501815203 l 56.58593513554823 17.314851072512084" fill="#47fffe" stroke="none" /><path d="M 80.2630227832202 92.82701384747504 l -18.84869781176448 -6.850159824979164 a41.05487718304387,41.05487718304387 0 0,0 0.2471022902650462,-0.6621112863809032 l 18.72799093299781 7.173594248389408" fill="#ff5b08" stroke="none" /><path d="M 80.38941819471856 92.48833698450439 l -14.367267044055456 -5.503256841646346 a36.38519412228293,36.38519412228293 0 0,0 0.2290646357986945,-0.582944512833472 l 14.27040885837507 5.749750359375581" fill="#ff0500" stroke="none" /><path d="M 80.52162464483688 92.15188598940014 l -55.31914641436402 -22.2888695855178 a80.64060418384496,80.64060418384496 0 0,0 0.5298406920840282,-1.2830512624681762 l 54.9272840353938 23.23779541843929" fill="#48faff" stroke="none" /><path d="M 80.65960295795068 91.81776055985345 l -27.47541353211849 -11.623877821539015 a50.83308372211942,50.83308372211942 0 0,0 0.3478660180101601,-0.8029227311394298 l 27.27125680426565 12.095099697265045" fill="#ffff18" stroke="none" /><path d="M 80.95270993114464 91.15688171328213 l -39.81704383227124 -18.485927770478092 a64.89904902245995,64.89904902245995 0 0,0 0.4791459894473762,-1.0092036512381524 l 39.49293964898211 19.168573837356774" fill="#38ff2e" stroke="none" /><path d="M 81.6062741919709 89.86733742301443 l -33.22854308757058 -18.30480776679881 a58.93681672336245,58.93681672336245 0 0,0 0.49715270138534007,-0.8843791819753745 l 32.90853274489281 18.87407045870897" fill="#87ff25" stroke="none" /><line stroke="#e1ed5e" stroke-width="0.3" x1="26.266209847984243" x2="21.928928074336255" y1="57.711370442889674" y2="55.22380399835377" /><path d="M 25.398753493254645 57.213857153982495 a86.0,86.0 0 0,1 29.58750427330803,-30.492523968695096" fill="none" id="id11" stroke="none" /><text fill="#e1ed5e" style="font-size:6.75px; font-family:Arial;" text-anchor="middle"><textPath startOffset="21.46611528233685" xlink:href="#id11">November</textPath></text><path d="M 81.78341655067845 89.55222093294921 l -38.82096139100489 -22.265032787958578 a65.75263934530301,65.75263934530301 0 0,0 0.571548009072711,-0.976960817514479 l 38.43195370746186 22.92997301782695" fill="#30ff33" stroke="none" /><path d="M 82.34701348167596 88.62581576622439 l -33.25218618158485 -21.42507112961081 a60.556814315155165,60.556814315155165 0 0,0 0.5721274148634498,-0.8713893042427866 l 32.87846213136347 21.994278497831264" fill="#70ff27" stroke="none" /><path d="M 82.54541684631803 88.32363383020206 l -12.548549789440507 -8.394440643547544 a36.09744135726681,36.09744135726681 0 0,0 0.3499312339189,-0.513480906529666 l 12.402194089852866 8.609199573347626" fill="#ff0000" stroke="none" /><path d="M 84.07557802195018 86.31012108654704 l -20.03614198817154 -17.224635097518956 a47.42224517358153,47.42224517358153 0 0,0 0.5374704856532735,-0.6144216762695998 l 19.736679638940423 17.5669723299915" fill="#ffc812" stroke="none" /><path d="M 84.5562425177563 85.77008943001954 l -36.18535029478077 -33.34125773667217 a70.20385191648305,70.20385191648305 0 0,0 0.8265088722524592,-0.8816620382543376 l 35.606074100557855 33.959189191804555" fill="#37ff76" stroke="none" /><path d="M 85.05521093208273 85.24692304244772 l -38.82553163942727 -38.32747679416912 a75.55655216829359,75.55655216829359 0 0,0 0.9216611299194087,-0.9177032241245924 l 38.16003470934055 38.990115868943825" fill="#3fffc2" stroke="none" /><path d="M 85.57189188830299 84.74124197986013 l -20.424915180068957 -21.60081113211847 a50.72830640447694,50.72830640447694 0 0,0 0.6396407430640191,-0.5944763601115173 l 20.050066553210083 21.949192078304634" fill="#fffd18" stroke="none" /><path d="M 86.93701828274178 83.55741782278169 l -34.297155824106014 -43.170373754537266 a76.13597797926005,76.13597797926005 0 0,0 1.0331559573899034,-0.8063946123910637 l 33.54896731155669 43.754346756151556" fill="#40ffc9" stroke="none" /><path d="M 87.51073957382395 83.11751280151077 l -36.455692573696936 -49.27936020115002 a82.29822887215087,82.29822887215087 0 0,0 1.1461191661642358,-0.8327043163803626 l 35.60202809117892 49.89958375234705" fill="#4ae6ff" stroke="none" /><line stroke="#e1ed5e" stroke-width="0.3" x1="56.762969772571076" x2="54.21961505331055" y1="26.818313649435495" y2="22.513508569990535" /><path d="M 56.25429882871897 25.957352633546506 a86.0,86.0 0 0,1 42.265352541879196,-11.944610805530505" fill="none" id="id12" stroke="none" /><text fill="#e1ed5e" style="font-size:6.75px; font-family:Arial;" text-anchor="middle"><textPath startOffset="22.20632615414155" xlink:href="#id12">December</textPath></text><path d="M 95.33964822691252 79.52364482259891 l -11.273595219882502 -49.53320072995955 a71.7999205091526,71.7999205091526 0 0,0 1.2074602063336226,-0.2639040333855342 l 10.419292289395358 49.71991826144095" fill="#39ff8d" stroke="none" /><path d="M 95.692805502759 79.44645832069477 l -11.797408482919083 -56.296163806112595 a78.51901343206012,78.51901343206012 0 0,0 1.3252274217058673,-0.2658281537018968 l 10.82661465174608 56.490895915891706" fill="#44ffe9" stroke="none" /><path d="M 97.47563105711357 79.15227682838746 l -2.8787063131074895 -23.77404954103748 a44.94770096725006,44.94770096725006 0 0,0 0.7688909899106988,-0.08639386158246222 l 2.4690486196870727 23.82007935609054" fill="#ff9f0e" stroke="none" /></svg>