<?xml version="1.0" encoding="utf-8" ?>
<svg baseProfile="full" height="200mm" version="1.1" viewBox="0,0,200,200" width="200mm" xmlns="http://www.w3.org/2000/svg" xmlns:ev="http://www.w3.org/2001/xml-events" xmlns:xlink="http://www.w3.org/1999/xlink"><defs /><rect fill="#1a1a1a" height="200" width="200" x="0" y="0" /><text alignment-baseline="middle" fill="#e1ed5e" style="dominant-baseline: central; font-size:9.0px; font-family:Arial;" text-anchor="middle" x="100.0" y="100.0">2023</text><line stroke="#e1ed5e" stroke-width="0.3" x1="100.0" x2="100.0" y1="15.0" y2="10.0" /><path d="M 100.0 14.0 a86.0,86.0 0 0,1 42.46469731375804,11.215312516191453" fill="none" id="id25" stroke="none" /><text fill="#e1ed5e" style="font-size:6.75px; font-family:Arial;" text-anchor="middle"><textPath startOffset="22.20632615414155" xlink:href="#id25">January</textPath></text><path d="M 101.44485096284872 79.0497635885617 l 0.4477575890162341 -6.49245326065366 a27.50787493735812,27.50787493735812 0 0,0 0.4721003808198877,0.03664407567262387 l -0.5594481591984629 6.483783922792571" fill="#ff3405" stroke="none" /><path d="M 102.16513564639614 79.11191278185805 l 0.6172604913744781 -5.955003789995468 a26.986909106798954,26.986909106798954 0 0,0 0.4616474438342288,0.05187146927959521 l -0.7196746387184322 5.943496367245272" fill="#ff2d04" stroke="none" /><path d="M 102.52436894288641 79.15227682838746 l 1.1765508515551188 -9.716648796391832 a30.78762155677864,30.78762155677864 0 0,0 0.5255670891609276,0.06823369204954524 l -1.3436326692238927 9.69495678117815" fill="#ff6309" stroke="none" /><path d="M 103.2404852339499 79.25152402106235 l 0.9109197537577657 -5.832520522411053 a26.90322542701295,26.90322542701295 0 0,0 0.45693308430845275,0.07539787406463924 l -1.0111820442050936 5.815976385406789" fill="#ff2b04" stroke="none" /><path d="M 103.59715602781102 79.31037775812273 l 2.0455412165162867 -11.76525975595945 a32.94175765930903,32.94175765930903 0 0,0 0.5578214163379132,0.10193829833099141 l -2.2477577539571008 11.72830597627772" fill="#ff820b" stroke="none" /><path d="M 106.0581310904928 79.89281104454417 l 1.3158628163441546 -4.367403394293004 a25.561327368203166,25.561327368203166 0 0,0 0.42019733811588444,0.13055735836843843 l -1.3908455271707574 4.344105901042045" fill="#ff1702" stroke="none" /><path d="M 108.76106565485865 80.91482961587045 l 10.116021063728766 -22.036815293541125 a45.247785681242156,45.247785681242156 0 0,0 0.7050505412070713,0.33103068279233644 l -10.493849816235436 21.859419628108785" fill="#dcff1b" stroke="none" /><line stroke="#e1ed5e" stroke-width="0.3" x1="143.23703022742887" x2="145.7803849466894" y1="26.81831364943548" y2="22.513508569990506" /><path d="M 143.74570117128098 25.957352633546492 a86.0,86.0 0 0,1 28.547481713284135,27.462654790039103" fill="none" id="id26" stroke="none" /><text fill="#e1ed5e" style="font-size:6.75px; font-family:Arial;" text-anchor="middle"><textPath startOffset="19.985693538727396" xlink:href="#id26">February</textPath></text><path d="M 110.68208982089419 81.91981866633111 l 2.4905417535603696 -4.215415455070173 a25.896174597078012,25.896174597078012 0 0,0 0.381830380719359,0.23004853205412373 l -2.562734200497366 4.171920313557434" fill="#ff1c02" stroke="none" /><path d="M 112.77801427241765 83.33499621200491 l 6.275980146520949 -8.185092823140582 a31.314246037542084,31.314246037542084 0 0,0 0.4249305085917763,0.331665002091923 l -6.415943210272155 8.075849431825436" fill="#ff6b09" stroke="none" /><path d="M 113.89432698308785 84.25364557470407 l 7.142086555548741 -8.094082309758504 a31.79460832101358,31.79460832101358 0 0,0 0.40725715676389335,0.3656394964436535 l -7.280354699908624 7.969943804545553" fill="#ff720a" stroke="none" /><path d="M 114.16331599549186 84.49514656593476 l 4.3258341290480695 -4.735573517692906 a27.413929953898112,27.413929953898112 0 0,0 0.3456663107615485,0.32125916377739844 l -4.406708323604465 4.660409767840867" fill="#ff3304" stroke="none" /><path d="M 114.42810811169701 84.74124197986012 l 3.1355035269340656 -3.3160196207564137 a25.563701183541433,25.563701183541433 0 0,0 0.31713202445702854,0.30508075626428777 l -3.1921187950035126 3.261555777729824" fill="#ff1802" stroke="none" /><path d="M 114.94478906791727 85.2469230424477 l 6.063761701136989 -5.985975621508014 a29.52062850436891,29.52062850436891 0 0,0 0.3538760548806807,0.36470038113796066 l -6.165902019720778 5.880711044819939" fill="#ff5107" stroke="none" /><path d="M 115.4437574822437 85.77008943001954 l 9.874297385713682 -9.098198343353165 a34.42680013839881,34.42680013839881 0 0,0 0.39780390413443883,0.43926500668153645 l -10.029444930464155 8.926880549402078" fill="#ff960d" stroke="none" /><path d="M 115.9244219780498 86.31012108654704 l 3.917078187214771 -3.3674268460992622 a26.165565321296768,26.165565321296768 0 0,0 0.29067374674133734,0.34406603292243393 l -3.9744625474432254 3.2995018635477216" fill="#ff2003" stroke="none" /><line stroke="#e1ed5e" stroke-width="0.3" x1="172.23445277983987" x2="176.4835382374775" y1="55.19839476539836" y2="52.563006222186495" /><path d="M 173.08426987136738 54.67131705675599 a86.0,86.0 0 0,1 12.851231095245387,41.99856678651699" fill="none" id="id27" stroke="none" /><text fill="#e1ed5e" style="font-size:6.75px; font-family:Arial;" text-anchor="middle"><textPath startOffset="22.20632615414155" xlink:href="#id27">March</textPath></text><path d="M 118.03404312379186 89.2402003453031 l 2.6767104879717474 -1.5970278204672645 a24.116933893390165,24.116933893390165 0 0,0 0.2096339506512875,0.3583323755065647 l -2.703804113093362 1.5507160326068046" fill="#ff0200" stroke="none" /><path d="M 118.3937258080291 89.86733742301442 l 8.66228371477581 -4.7718444291274 a30.889674332912303,30.889674332912303 0 0,0 0.2525479476543006,0.46793299161745955 l -8.743139761648575 4.622030454177482" fill="#ff6509" stroke="none" /><path d="M 120.08093135843002 93.85539295169968 l 12.589542953283255 -3.8523011201444546 a34.16574402351915,34.16574402351915 0 0,0 0.16723985744804146,0.5638496599281959 l -12.653988707842998 3.6350220734697287" fill="#ff920d" stroke="none" /><path d="M 120.28053869075195 94.5502522615342 l 10.021861643758058 -2.6930555771278946 a31.377391731457795,31.377391731457795 0 0,0 0.13567534597899059,0.5228124535138585 l -10.066733321607352 2.5201466980651857" fill="#ff6c09" stroke="none" /><path d="M 120.45610955862082 95.25157060432595 l 11.427458661650668 -2.652629546753882 a32.73129383214173,32.73129383214173 0 0,0 0.12267316882262577,0.5499197620406773 l -11.471426217475333 2.4555316151632405" fill="#ff7f0b" stroke="none" /><path d="M 120.53481517161879 95.60439243477599 l 5.839841568542445 -1.2500551655255674 a26.972134246861287,26.972134246861287 0 0,0 0.09327311331820436,0.4548328258115296 l -5.860493977775646 1.149346683550626" fill="#ff2c04" stroke="none" /><path d="M 120.87857604477298 97.74499172005257 l 6.090397572569635 -0.6577985454977698 a27.125817620401467,27.125817620401467 0 0,0 0.04614343683906612,0.46465811179558114 l -6.10081813509093 0.5528649029977537" fill="#ff2f04" stroke="none" /><line stroke="#e1ed5e" stroke-width="0.3" x1="184.98032266829074" x2="189.97916517819016" y1="98.17113171792111" y2="98.06355123074" /><path d="M 185.9800911702706 98.14961562048488 a86.0,86.0 0 0,1 -9.607161424134198,41.387399972396054" fill="none" id="id28" stroke="none" /><text fill="#e1ed5e" style="font-size:6.75px; font-family:Arial;" text-anchor="middle"><textPath startOffset="21.466115282336823" xlink:href="#id28">April</textPath></text><path d="M 120.9904718944345 100.63252640178507 l 10.186211312487513 0.30695105959092045 a31.19083509118034,31.19083509118034 0 0,0 -0.020790722184112948,0.5365161580746811 l -10.179418457452197 -0.4822444646796078" fill="#ff6909" stroke="none" /><path d="M 120.64145759157962 103.86396538481128 l 4.65416683844416 0.8712339949394324 a25.735009781828484,25.735009781828484 0 0,0 -0.08525649311398796,0.4347210216131341 l -4.638480412354508 -0.9512187436205114" fill="#ff1a02" stroke="none" /><path d="M 120.13307415673323 105.97154293290107 l 5.93902756019575 1.7615371492351468 a27.19476080966006,27.19476080966006 0 0,0 -0.13697512484578478,0.4476426333237078 l -5.907825662843832 -1.8635067551109117" fill="#ff3004" stroke="none" /><path d="M 119.26925614724726 108.34839909993367 l 5.261397645109964 2.2794988571006156 a26.733970720146004,26.733970720146004 0 0,0 -0.18657627378907188,0.4206802426965727 l -5.2213802865896195 -2.369727436289876" fill="#ff2904" stroke="none" /><path d="M 119.12269723197855 108.67885076344098 l 7.444234270907798 3.3785714170728953 a29.175045486137684,29.175045486137684 0 0,0 -0.2114848798972694,0.45551961672056573 l -7.384974774170698 -3.506211101072292" fill="#ff4c07" stroke="none" /><path d="M 118.97047184881838 109.00673069616215 l 9.359470733378885 4.443655014274493 a31.360780004172597,31.360780004172597 0 0,0 -0.2357236663657634,0.4856605717571564 l -9.281593810398407 -4.604104541996925" fill="#ff6b09" stroke="none" /><path d="M 118.81262510543309 109.33194174019688 l 8.58292574794374 4.257532512946061 a30.580876655792434,30.580876655792434 0 0,0 -0.23797940677103008,0.4695559466714126 l -8.508367671386441 -4.404642671320168" fill="#ff6008" stroke="none" /><line stroke="#e1ed5e" stroke-width="0.3" x1="174.80103733775053" x2="179.2010983576182" y1="140.37084112569926" y2="142.7455964860345" /><path d="M 175.68104954172406 140.8457921977663 a86.0,86.0 0 0,1 -30.038265399797805,32.042727171017184" fill="none" id="id29" stroke="none" /><text fill="#e1ed5e" style="font-size:6.75px; font-family:Arial;" text-anchor="middle"><textPath startOffset="22.206326154141568" xlink:href="#id29">May</textPath></text><path d="M 118.48025628344425 109.97397251340804 l 10.089105344171701 5.4451874391913035 a32.46473344189566,32.46473344189566 0 0,0 -0.2696483511016711,0.48949008190766025 l -9.99388058361852 -5.6180480394967685" fill="#ff7b0b" stroke="none" /><path d="M 117.75023020441432 111.22182372390056 l 3.9076047678153403 2.4704159541655892 a25.623021739949863,25.623021739949863 0 0,0 -0.2388982401079187,0.3707753738816092 l -3.864501664330371 -2.5373129279686513" fill="#ff1802" stroke="none" /><path d="M 117.55443506779139 111.5257021239791 l 13.186934508941556 8.65813559317255 a36.77525130363618,36.77525130363618 0 0,0 -0.35198625284624785,0.526171689883212 l -13.035945150684586 -8.88384419726157" fill="#ffb610" stroke="none" /><path d="M 116.71984013943494 112.70617746262583 l 9.255392423513392 7.03359946259499 a32.6247068915068,32.6247068915068 0 0,0 -0.3436363216504764,0.4441962683755625 l -9.132949284644846 -7.191873725083805" fill="#ff7d0b" stroke="none" /><path d="M 115.80600337817218 113.82643327865902 l 5.518139735690538 4.827038755616496 a28.33145069483731,28.33145069483731 0 0,0 -0.32424825957755166,0.36429635696757856 l -5.434232626464648 -4.921309282324942" fill="#ff4006" stroke="none" /><path d="M 113.75828350139079 115.86535959552629 l 8.589421873578592 9.904888696924138 a34.110491532386035,34.110491532386035 0 0,0 -0.4469035157850332,0.380860871516725 l -8.417652881216513 -10.05127395866381" fill="#ff920d" stroke="none" /><path d="M 112.34349029814194 116.9893568818739 l 11.51781893498826 15.852917745378383 a40.595283975000385,40.595283975000385 0 0,0 -0.5688610805741294,0.4058672767911782 l -11.243230526565245 -16.04882928401378" fill="#ffe815" stroke="none" /><path d="M 111.45004920935366 117.60387380957326 l 3.8483124858542515 5.916586570251735 a28.0580100334347,28.0580100334347 0 0,0 -0.40713267883511267,0.2598513384485643 l -3.745898004972208 -5.981952337524109" fill="#ff3c05" stroke="none" /><path d="M 111.1453310114006 117.79835938074945 l 4.698160637250537 7.502653027060496 a29.852260491980022,29.852260491980022 0 0,0 -0.43786272193184844,0.2689710464917226 l -4.56831871538638 -7.582412540380596" fill="#ff5608" stroke="none" /><line stroke="#e1ed5e" stroke-width="0.3" x1="143.8653032363475" x2="146.44561519142675" y1="172.8068346515853" y2="177.08958963109032" /><path d="M 144.38136562736335 173.6633856474863 a86.0,86.0 0 0,1 -40.68145358897372,12.25698825130547" fill="none" id="id30" stroke="none" /><text fill="#e1ed5e" style="font-size:6.75px; font-family:Arial;" text-anchor="middle"><textPath startOffset="21.466115282336833" xlink:href="#id30">June</textPath></text><path d="M 110.8373102113329 117.98757091392108 l 3.5299554432493263 5.858956015859908 a27.840171856547652,27.840171856547652 0 0,0 -0.41260742656424026,0.2437757404080646 l -3.428580145656704 -5.918850328561722" fill="#ff3905" stroke="none" /><path d="M 109.89434966115114 118.52300852407294 l 14.539363132366388 27.218842719176912 a51.85868563737129,51.85868563737129 0 0,0 -0.7909908948889801,0.41380905166750365 l -14.068681334950911 -27.46508118978913" fill="#8fff24" stroke="none" /><path d="M 109.57404056367764 118.69057910512821 l 1.4147462475439672 2.7618878860532634 a24.103148665479548,24.103148665479548 0 0,0 -0.3708970620852953,0.1859754866262726 l -1.3669952777759113 -2.785831213588838" fill="#ff0200" stroke="none" /><path d="M 107.93186726928326 119.44442032107085 l 3.5723840612958213 8.75745078402035 a30.45805858069927,30.45805858069927 0 0,0 -0.4871533305685273,0.1938483639321556 l -3.4211096546854276 -8.817645992358575" fill="#ff5f08" stroke="none" /><path d="M 107.59598834532513 119.57807347666477 l 3.6617804173363484 9.437956300992019 a31.123421109695226,31.123421109695226 0 0,0 -0.5011312147145833,0.18948494531155993 l -3.4987789818614905 -9.49958949641021" fill="#ff6809" stroke="none" /><path d="M 107.2578585660854 119.70592522655815 l 1.7167938699858996 4.661293868337615 a25.9673978820931,25.9673978820931 0 0,0 -0.4207713124105302,0.15087362230418622 l -1.6363029969456346 -4.690155031681761" fill="#ff1e03" stroke="none" /><path d="M 105.88484417918355 120.15858648285463 l 0.8392852238827824 2.874979057095502 a23.99497984396652,23.99497984396652 0 0,0 -0.39748121950829346,0.11233216296563156 l -0.7896728362698832 -2.8890000133996523" fill="#ff0000" stroke="none" /><path d="M 105.53697534728816 120.25689768951611 l 3.366409939459822 12.315933781068145 a33.76773044750512,33.76773044750512 0 0,0 -0.5620068817127729,0.14843112546140394 l -3.1539126149355514 -12.372056255833133" fill="#ff8d0d" stroke="none" /><path d="M 103.06178313531738 120.77559828337769 l 0.6960312370388874 4.72289013764635 a25.77390309235651,25.77390309235651 0 0,0 -0.4394713233759144,0.06090672094808314 l -0.6146313224761425 -4.734171424087036" fill="#ff1b02" stroke="none" /><path d="M 102.70371172650421 120.8252237178851 l 0.7086962273833587 5.458702323402686 a26.50451463784313,26.50451463784313 0 0,0 -0.45294016518357977,0.05484474618946049 l -0.6146286391483986 -5.470092598317497" fill="#ff2503" stroke="none" /><line stroke="#e1ed5e" stroke-width="0.3" x1="102.19456741930631" x2="102.32365962044197" y1="184.97166512339345" y2="189.96999836594603" /><path d="M 102.22038585953345 185.97133177190398 a86.0,86.0 0 0,1 -42.740103519485714,-10.115201625700543" fill="none" id="id31" stroke="none" /><text fill="#e1ed5e" style="font-size:6.75px; font-family:Arial;" text-anchor="middle"><textPath startOffset="22.20632615414155" xlink:href="#id31">July</textPath></text><path d="M 99.81925306533755 120.99922214144158 l -0.06575801214751034 7.639781594326927 a28.640064589071095,28.640064589071095 0 0,0 -0.4929368488841846,-0.008486354887229987 l 0.19725455092436286 -7.637517762160537" fill="#ff4506" stroke="none" /><path d="M 98.73552117531835 120.96189622390904 l -0.5586187057298494 9.26050093499318 a30.277334338343145,30.277334338343145 0 0,0 -0.5199587746073034,-0.03585940136326285 l 0.7179402411160829 -9.249513189113632" fill="#ff5c08" stroke="none" /><path d="M 98.01472825383883 120.90594882070398 l -0.7882765405237365 8.300963857777534 a29.338308034155908,29.338308034155908 0 0,0 -0.5023380590393667,-0.052069393755829495 l 0.9310471961686965 -8.286165095565945" fill="#ff4f07" stroke="none" /><path d="M 97.65516085044442 120.86867818915974 l -1.0405215493652749 9.26046861965151 a30.318742627106076,30.318742627106076 0 0,0 -0.5181221569729165,-0.06273737764633953 l 1.1997711293895807 -9.241185713279823" fill="#ff5d08" stroke="none" /><path d="M 97.2962882734958 120.8252237178851 l -1.2735805993360338 9.80969999276657 a30.892028178846317,30.892028178846317 0 0,0 -0.5267405738616959,-0.0730014438661877 l 1.4422497643845609 -9.786323983407778" fill="#ff6509" stroke="none" /><path d="M 93.76903079525671 120.05430185196036 l -1.1992628665443135 3.8598135755860734 a25.041830310806063,25.041830310806063 0 0,0 -0.4105413169459633,-0.13144236521861083 l 1.2655255285812173 -3.838598363707756" fill="#ff1001" stroke="none" /><path d="M 92.7421414339146 119.70592522655815 l -2.753210460659718 7.475284751932122 a28.966181642616178,28.966181642616178 0 0,0 -0.46639660020168344,-0.1763512862255998 l 2.8814772816216845 -7.426785215599889" fill="#ff4906" stroke="none" /><path d="M 92.40401165467489 119.57807347666478 l -2.262718025823233 5.831981007949408 a27.255549163859875,27.255549163859875 0 0,0 -0.4359316440497852,-0.17346619777121267 l 2.362770745914876 -5.792167965772129" fill="#ff3104" stroke="none" /><path d="M 91.7346041902142 119.30500536409082 l -2.650347690008444 6.190263303753957 a27.733773284551237,27.733773284551237 0 0,0 -0.43724185467830123,-0.19167397973732053 l 2.756510219344489 -6.1437247707221845" fill="#ff3805" stroke="none" /><path d="M 91.07499286063937 119.00905698771935 l -2.3979841420466452 5.107381596456343 a26.64231111490036,26.64231111490036 0 0,0 -0.41344722321630356,-0.19847979229020654 l 2.485544033263191 -5.0653475276665745" fill="#ff2803" stroke="none" /><path d="M 90.7491055286396 118.85261126421891 l -3.4065498607745615 6.94228655144497 a28.733041091079038,28.733041091079038 0 0,0 -0.4421414261415649,-0.2216988897728228 l 3.525545194598887 -6.882619820762844" fill="#ff4606" stroke="none" /><path d="M 90.42595943632237 118.69057910512821 l -5.39334628621207 10.528967861932111 a32.829934420807106,32.829934420807106 0 0,0 -0.5007488887830028,-0.2619681517572138 l 5.573786077521568 -10.43457029123018" fill="#ff800b" stroke="none" /><line stroke="#e1ed5e" stroke-width="0.3" x1="58.666819895761336" x2="56.23545636021788" y1="174.27360380694188" y2="178.64263932499728" /><path d="M 58.180547188652646 175.14741091055294 a86.0,86.0 0 0,1 -31.652253787137756,-30.449443065178592" fill="none" id="id32" stroke="none" /><text fill="#e1ed5e" style="font-size:6.75px; font-family:Arial;" text-anchor="middle"><textPath startOffset="22.20632615414155" xlink:href="#id32">August</textPath></text><path d="M 89.1626897886671 117.98757091392108 l -6.3239614531973505 10.496396511501173 a33.25425755352726,33.25425755352726 0 0,0 -0.4877620484425968,-0.29962328838985147 l 6.503702701572256 -10.385984756282943" fill="#ff860c" stroke="none" /><path d="M 88.8546689885994 117.79835938074946 l -1.6115541242994116 2.573545768759129 a24.036485553966042,24.036485553966042 0 0,0 -0.34877878872046136,-0.22260712485864118 l 1.6556147150667964 -2.5454242150766837" fill="#ff0100" stroke="none" /><path d="M 88.54995079064634 117.60387380957326 l -4.00327904372353 6.15483984581025 a28.342226953008844,28.342226953008844 0 0,0 -0.40667762261884594,-0.2695237528188018 l 4.108631365082338 -6.08501807190013" fill="#ff4006" stroke="none" /><path d="M 88.24862548938628 117.40417183066458 l -8.590053859432825 12.722152057123452 a36.3506409726932,36.3506409726932 0 0,0 -0.515561340631512,-0.35460779122564484 l 8.807772084687228 -12.572403476532706" fill="#ffb010" stroke="none" /><path d="M 87.95078237400918 117.19931262002967 l -4.008174067831731 5.721353947448945 a27.985653179912983,27.985653179912983 0 0,0 -0.39216252110225186,-0.27979754624572867 l 4.106063916782869 -5.651512139358997" fill="#ff3b05" stroke="none" /><path d="M 87.65650970185807 116.9893568818739 l -3.0161056912378714 4.15131334365002 a26.131305488653368,26.131305488653368 0 0,0 -0.36162619607554913,-0.26752241459535253 l 3.087116857731985 -4.0987809803149" fill="#ff2003" stroke="none" /><path d="M 86.79598089348748 116.32954008644616 l -6.093954939107941 7.536453913042156 a30.691977320613503,30.691977320613503 0 0,0 -0.4079546516291511,-0.3357189048795062 l 6.222779719281781 -7.430439889305469" fill="#ff6209" stroke="none" /><path d="M 85.70375840098266 115.38237550388516 l -3.8792188868183697 4.1739362870661845 a26.69825265325575,26.69825265325575 0 0,0 -0.33393686935193234,-0.3157581532607039 l 3.950491590561119 -4.106543497059549" fill="#ff2803" stroke="none" /><path d="M 85.44109423537348 115.13401014063109 l -5.540996264453062 5.759876120578959 a28.992422193997168,28.992422193997168 0 0,0 -0.3566758883123928,-0.34908242703702813 l 5.639322105141249 -5.663643590619361" fill="#ff4a06" stroke="none" /><path d="M 85.18274418774928 114.88116024355367 l -5.1332474592128845 5.155386326475136 a28.275179561545016,28.275179561545016 0 0,0 -0.34194032989964446,-0.3463837488862418 l 5.2212284141680625 -5.066262083608229" fill="#ff3f05" stroke="none" /><path d="M 84.67929136418377 114.36230785411682 l -4.398466267042969 4.12331623261456 a27.02895034450091,27.02895034450091 0 0,0 -0.3152780226185989,-0.34217202538677827 l 4.468790697657297 -4.046992952426438" fill="#ff2d04" stroke="none" /><path d="M 84.43433777217949 114.09645910891817 l -4.54061886831539 4.112041445431799 a27.12585541424629,27.12585541424629 0 0,0 -0.31045044259680016,-0.34879436332005376 l 4.610728160560528 -4.033272912370881" fill="#ff2f04" stroke="none" /><path d="M 83.95833913139862 113.55231037782056 l -5.6184248679739355 4.746555750613301 a28.355031576461663,28.355031576461663 0 0,0 -0.3117757244833373,-0.3755539446274597 l 5.699296592350809 -4.64914054887208" fill="#ff4106" stroke="none" /><path d="M 83.72743513129214 113.27417163493432 l -4.309388359789436 3.5153376982036524 a26.561333218563732,26.561333218563732 0 0,0 -0.2859543653647366,-0.356772038286191 l 4.369260637209034 -3.440637826339202" fill="#ff2603" stroke="none" /><path d="M 83.28015986056508 112.70617746262583 l -2.468202959094159 1.8757012358067031 a24.100045317941007,24.100045317941007 0 0,0 -0.24816015581631473,-0.3324510824690245 l 2.5001243816055587 -1.8329372738283707" fill="#ff0200" stroke="none" /><path d="M 83.06392112726016 112.41649034213515 l -15.112872219201696 11.079827471379948 a39.739303175664354,39.739303175664354 0 0,0 -0.3997020889339289,-0.5551512425966089 l 15.301354100511233 -10.8180426233322" fill="#ffdd14" stroke="none" /><path d="M 82.85270091963577 112.12312394758628 l -9.992318776830484 7.064559758803518 a33.237419626845565,33.237419626845565 0 0,0 -0.326263406197592,-0.4700067705023178 l 10.112443090190208 -6.891511726114187" fill="#ff860c" stroke="none" /><path d="M 82.6465618267979 111.8261652097733 l -14.360264509984132 9.786352356005754 a38.37785628990553,38.37785628990553 0 0,0 -0.36732523501258474,-0.5491013870014554 l 14.526592850407448 -9.537714054798478" fill="#ffcb12" stroke="none" /><path d="M 82.44556493220864 111.52570212397912 l -2.5368938375664096 1.6656464636447856 a24.034832529965172,24.034832529965172 0 0,0 -0.22409063423401704,-0.3477936407315117 l 2.5651893351774726 -1.6217312229918257" fill="#ff0100" stroke="none" /><path d="M 82.24976979558568 111.22182372390057 l -8.263716302734627 5.224381125521922 a30.776664322599594,30.776664322599594 0 0,0 -0.27924013459642283,-0.4502240089639229 l 8.352421076999006 -5.081360785192735" fill="#ff6309" stroke="none" /><path d="M 82.05923443525364 110.91462005526583 l -8.0521269882905 4.898670928883809 a30.42516450281095,30.42516450281095 0 0,0 -0.2683486821879945,-0.4497678267344405 l 8.135256546176727 -4.759341008263258" fill="#ff5e08" stroke="none" /><line stroke="#e1ed5e" stroke-width="0.3" x1="26.63291911575756" x2="22.317208475507996" y1="142.92168965132927" y2="145.44649492493687" /><path d="M 25.769776987707644 143.4266507060508 a86.0,86.0 0 0,1 -11.730757126820373,-40.83630448921669" fill="none" id="id33" stroke="none" /><text fill="#e1ed5e" style="font-size:6.75px; font-family:Arial;" text-anchor="middle"><textPath startOffset="21.46611528233685" xlink:href="#id33">September</textPath></text><path d="M 81.87401531095188 110.60418214915194 l -10.803887900598825 6.32056118232245 a33.516928034793004,33.516928034793004 0 0,0 -0.2870453620077118,-0.5004877837860201 l 10.911085258758915 -6.133653552678123" fill="#ff8a0c" stroke="none" /><path d="M 81.51974371655577 109.97397251340807 l -10.843895093437778 5.852554744986006 a33.322437171296194,33.322437171296194 0 0,0 -0.26808296094877687,-0.5071119324134382 l 10.94303056261144 -5.665027797486442" fill="#ff870c" stroke="none" /><path d="M 81.35079622478065 109.6543875284942 l -55.94761132565806 28.96316258548259 a84.0,84.0 0 0,0 -0.6536853208549331,-1.28978315318926 l 56.437875316299255 -27.995825220590643" fill="#4dd2ff" stroke="none" /><path d="M 81.18737489456691 109.33194174019688 l -12.512438856252672 6.206754760695454 a34.96728072284929,34.96728072284929 0 0,0 -0.26283197081622267,-0.5415117081396567 l 12.617424083683613 -5.990454096590513" fill="#ff9d0e" stroke="none" /><path d="M 80.87730276802145 108.67885076344099 l -7.215052502171008 3.2745570960574613 a28.923364612614037,28.923364612614037 0 0,0 -0.20185604493078088,-0.455132092879362 l 7.270349631833069 -3.1498766666854032" fill="#ff4906" stroke="none" /><path d="M 80.58989483394504 108.01547362559985 l -8.667589719669744 3.5793127446333033 a30.37755785225658,30.37755785225658 0 0,0 -0.19542517386118216,-0.48502925482158965 l 8.727917507788314 -3.429584121968908" fill="#ff5e08" stroke="none" /><path d="M 80.45479744820244 107.68017299344265 l -6.419817194257826 2.522629607317277 a27.897659961421855,27.897659961421855 0 0,0 -0.17177747709366525,-0.44845678778467685 l 6.462288950945 -2.4117492526994426" fill="#ff3a05" stroke="none" /><path d="M 80.20201598880116 107.00284435728193 l -13.711659017802265 4.850019776128514 a35.54414950587747,35.54414950587747 0 0,0 -0.19906275658170983,-0.5785695498373333 l 13.793112605327204 -4.613277523201884" fill="#ffa50f" stroke="none" /><path d="M 79.86692584326677 105.97154293290107 l -4.332070928997169 1.2849079747827614 a25.5186089715224,25.5186089715224 0 0,0 -0.12128309865629804,-0.4222023772703242 l 4.353546664539571 -1.2101481220078414" fill="#ff1702" stroke="none" /><path d="M 79.4281124754447 104.21870165774334 l -4.980888704312281 1.0214368228892765 a26.084543781687774,26.084543781687774 0 0,0 -0.0864144504376753,-0.44062542105946073 l 4.9977330877256225 -0.935547674761861" fill="#ff1f03" stroke="none" /><path d="M 79.0235259727143 100.99374915477108 l -8.983677276632596 0.4255968705120355 a29.99375283776881,29.99375283776881 0 0,0 -0.019992788929381188,-0.515925046306695 l 8.989672198413178 -0.2708945771913437" fill="#ff5808" stroke="none" /><line stroke="#e1ed5e" stroke-width="0.3" x1="15.007084014347285" x2="10.007500721073583" y1="101.09737516637583" y2="101.16192664675087" /><path d="M 14.007167355692545 101.11028546245083 a86.0,86.0 0 0,1 10.666146001902534,-42.60595125391555" fill="none" id="id34" stroke="none" /><text fill="#e1ed5e" style="font-size:6.75px; font-family:Arial;" text-anchor="middle"><textPath startOffset="22.20632615414155" xlink:href="#id34">October</textPath></text><path d="M 79.00486145842228 99.54816195383935 l -11.514037541617899 -0.24779451756997256 a32.51670363570775,32.51670363570775 0 0,0 0.01685960973718205,-0.55948836813883 l 11.508066237425073 0.4459530331337969" fill="#ff7c0b" stroke="none" /><path d="M 79.03285615573316 98.82574320788736 l -8.091132223776672 -0.45314073486690787 a29.103811275457552,29.103811275457552 0 0,0 0.032318270402988854,-0.4999493387291573 l 8.082133362369271 0.592349137849077" fill="#ff4b07" stroke="none" /><path d="M 79.05617556472873 98.46500227214037 l -38.97383935413753 -2.8564389010928317 a60.07837505830809,60.07837505830809 0 0,0 0.08446881118487612,-1.0307334481085586 l 38.918896059133154 3.5268862664091687" fill="#37ff2e" stroke="none" /><path d="M 79.46518482838121 95.60439243477599 l -8.81067670438352 -1.8859812885025404 a30.010269108619795,30.010269108619795 0 0,0 0.11247507744893981,-0.5042037180572166 l 8.776907239932543 2.037363176109716" fill="#ff5808" stroke="none" /><path d="M 80.14247586403 93.16781622104843 l -6.144166934638315 -2.1139633208334985 a27.497663290947923,27.497663290947923 0 0,0 0.15784564736442694,-0.4462509008227094 l 6.106868206464079 2.219411848082819" fill="#ff3404" stroke="none" /><line stroke="#e1ed5e" stroke-width="0.3" x1="26.266209847984243" x2="21.928928074336255" y1="57.711370442889674" y2="55.22380399835377" /><path d="M 25.398753493254645 57.213857153982495 a86.0,86.0 0 0,1 29.58750427330803,-30.492523968695096" fill="none" id="id35" stroke="none" /><text fill="#e1ed5e" style="font-size:6.75px; font-family:Arial;" text-anchor="middle"><textPath startOffset="21.46611528233685" xlink:href="#id35">November</textPath></text><path d="M 82.54541684631803 88.32363383020206 l -9.182257687521581 -6.142535864703674 a32.047379919656066,32.047379919656066 0 0,0 0.3106696424314697,-0.45586936564779257 l 9.075163579421371 6.299683253621882" fill="#ff750a" stroke="none" /><path d="M 85.05521093208273 85.24692304244772 l -11.186586592062266 -11.043084792632467 a36.719078895373535,36.719078895373535 0 0,0 0.4479101649441266,-0.4459866963504749 l 10.994840626950825 11.23400733963305" fill="#ffb510" stroke="none" /><path d="M 85.31137513191541 84.99185889309783 l -4.390447080731199 -4.48595085665041 a27.2769244584417,27.2769244584417 0 0,0 0.33838551829247965,-0.32552660049486715 l 4.312578318826292 4.560860543907591" fill="#ff3104" stroke="none" /><line stroke="#e1ed5e" stroke-width="0.3" x1="56.762969772571076" x2="54.21961505331055" y1="26.818313649435495" y2="22.513508569990535" /><path d="M 56.25429882871897 25.957352633546506 a86.0,86.0 0 0,1 42.265352541879196,-11.944610805530505" fill="none" id="id36" stroke="none" /><text fill="#e1ed5e" style="font-size:6.75px; font-family:Arial;" text-anchor="middle"><textPath startOffset="22.20632615414155" xlink:href="#id36">December</textPath></text><path d="M 89.3179101791058 81.91981866633112 l -6.252047663843274 -10.582026304246593 a33.29094710324371,33.29094710324371 0 0,0 0.49588176348661034,-0.28724672436455295 l 6.068969167891343 10.688077186001193" fill="#ff860c" stroke="none" /></svg>