<svg xmlns="http://www.w3.org/2000/svg" xmlns:ev="http://www.w3.org/2001/xml-events" xmlns:xlink="http://www.w3.org/1999/xlink" width="200mm" height="200mm" baseProfile="full" version="1.1" viewBox="0 0 200 200"><rect width="200" height="200" x="0" y="0" fill="#1a1a1a"/><text fill="#e1ed5e" alignment-baseline="middle" style="dominant-baseline:central;font-size:9px;font-family:Arial" x="100" y="100" text-anchor="middle">2024</text><line x1="100" x2="100" y1="15" y2="10" stroke="#e1ed5e" stroke-width=".3"/><path id="id145" fill="none" stroke="none" d="M 100.0 14.0 a86.0,86.0 0 0,1 42.35913384403234,11.155469271406648"/><text fill="#e1ed5e" style="font-size:6.75px;font-family:Arial" text-anchor="middle"><textPath startOffset="22.146" xlink:href="#id145">January</textPath></text><path fill="red" stroke="none" d="M 100.0 79.0 l 0.0 -28.758986912720076 a49.758986912720076,49.758986912720076 0 0,0 0.8541791776039213,0.007332100917125303 l -0.4936862527550665 28.754749209997385"/><path fill="#85ff25" stroke="none" d="M 100.36049292484886 79.00309439819443 l 0.7752311931204982 -45.153330508083926 a66.15998493550512,66.15998493550512 0 0,0 1.1353894148588746,0.02924360382324365 l -1.5502339220501142 45.133369186910635"/><path fill="#fdff18" stroke="none" d="M 100.72087961077811 79.0123766808444 l 1.3517052654710746 -39.353423964376965 a60.37663120233499,60.37663120233499 0 0,0 1.0355289152754676,0.04447006722861705 l -2.0270599413473787 39.324421328722515"/><path fill="#3dffb1" stroke="none" d="M 101.08105385017728 79.02784411241856 l 2.8874245006900474 -56.01526393173056 a77.0896337444685,77.0896337444685 0 0,0 1.3210066711898525,0.07946848098984027 l -3.8485755240123627 55.957443472916026"/><path fill="#ff970d" stroke="none" d="M 101.44090949804482 79.04949213459386 l 2.383707395202581 -34.658582374383954 a55.74045758403164,55.74045758403164 0 0,0 0.9540404143389024,0.07384876184310749 l -2.978316804316717 34.61255584554579"/><path fill="#ffbd11" stroke="none" d="M 101.80034050326958 79.07731436759882 l 3.1174486643189456 -36.229478957030096 a57.36335561623199,57.36335561623199 0 0,0 0.9803682560174491,0.09284189312988508 l -3.738916483721408 36.17062530839503"/><path fill="#ff6909" stroke="none" d="M 102.15924093988457 79.11130261209362 l 3.377003224971525 -32.669442831231784 a53.843517559551834,53.843517559551834 0 0,0 0.9185809177673577,0.1029289078122747 l -3.9373200443396796 32.60665816291254"/><path fill="#ffff18" stroke="none" d="M 102.51750503828377 79.15144685158666 l 4.7095666703380346 -39.00196803557336 a60.28528387157518,60.28528387157518 0 0,0 1.0263488570332135,0.1328814077629126 l -5.37839334926204 38.915375031610054"/><path fill="#a2ff22" stroke="none" d="M 102.87502721639298 79.19773525538626 l 5.981767387990967 -43.28108900541138 a64.69249599849354,64.69249599849354 0 0,0 1.0987709132494352,0.16148148599320836 l -6.723863406848084 43.17202644611929"/><path fill="#65ff29" stroke="none" d="M 103.23170211078529 79.25015418208739 l 7.208573082253507 -46.28421026948196 a67.84219941625082,67.84219941625082 0 0,0 1.1491903130819172,0.1890988286994282 l -8.002040898388493 46.15364544228686"/><path fill="#ff0a01" stroke="none" d="M 103.58742460773223 79.30868818359171 l 4.975107053679604 -28.69509540237306 a50.12318990678844,50.12318990678844 0 0,0 0.8465216430267742,0.15426444247907925 l -5.466963430257432 28.605462785962615"/><path fill="#fff016" stroke="none" d="M 103.94208987418118 79.37332000966035 l 7.246526946945979 -37.91689107724239 a59.603144713303834,59.603144713303834 0 0,0 1.003329577598089,0.20069401540326817 l -7.896353010075025 37.786907665176265"/><path fill="#4dd2ff" stroke="none" d="M 104.29559338865022 79.4440306129975 l 12.88678016595065 -61.66790816100754 a84.0,84.0 0 0,0 1.4089503335234634,0.30707416746512495 l -13.943492916093248 61.4376025354087"/><line x1="143.13" x2="145.667" y1="26.755" y2="22.447" stroke="#e1ed5e" stroke-width=".3"/><path id="id146" fill="none" stroke="none" d="M 143.63769802327073 25.89364864446614 a86.0,86.0 0 0,1 29.32050498858742,28.57503671076993"/><text fill="#e1ed5e" style="font-size:6.75px;font-family:Arial" text-anchor="middle"><textPath startOffset="20.669" xlink:href="#id146">February</textPath></text><line x1="172.872" x2="177.158" y1="56.243" y2="53.669" stroke="#e1ed5e" stroke-width=".3"/><path id="id147" fill="none" stroke="none" d="M 173.72905801456457 55.72781907015455 a86.0,86.0 0 0,1 12.242430191666344,42.057860355516425"/><text fill="#e1ed5e" style="font-size:6.75px;font-family:Arial" text-anchor="middle"><textPath startOffset="22.146" xlink:href="#id147">March</textPath></text><line x1="184.997" x2="189.997" y1="99.27" y2="99.227" stroke="#e1ed5e" stroke-width=".3"/><path id="id148" fill="none" stroke="none" d="M 185.99683186730306 99.26182062694052 a86.0,86.0 0 0,1 -10.086455211305974,41.156179273409016"/><text fill="#e1ed5e" style="font-size:6.75px;font-family:Arial" text-anchor="middle"><textPath startOffset="21.407" xlink:href="#id148">April</textPath></text><line x1="174.331" x2="178.703" y1="141.23" y2="143.655" stroke="#e1ed5e" stroke-width=".3"/><path id="id149" fill="none" stroke="none" d="M 175.20536237346943 141.71514677278685 a86.0,86.0 0 0,1 -30.301960400862466,31.631185727798858"/><text fill="#e1ed5e" style="font-size:6.75px;font-family:Arial" text-anchor="middle"><textPath startOffset="22.146" xlink:href="#id149">May</textPath></text><line x1="143.13" x2="145.667" y1="173.245" y2="177.553" stroke="#e1ed5e" stroke-width=".3"/><path id="id150" fill="none" stroke="none" d="M 143.63769802327073 174.10635135553383 a86.0,86.0 0 0,1 -40.68552437913181,11.842963189579606"/><text fill="#e1ed5e" style="font-size:6.75px;font-family:Arial" text-anchor="middle"><textPath startOffset="21.407" xlink:href="#id150">June</textPath></text><line x1="101.459" x2="101.545" y1="184.987" y2="189.987" stroke="#e1ed5e" stroke-width=".3"/><path id="id151" fill="none" stroke="none" d="M 101.47630435890484 185.9873277026323 a86.0,86.0 0 0,1 -42.54439059252881,-10.42667462771756"/><text fill="#e1ed5e" style="font-size:6.75px;font-family:Arial" text-anchor="middle"><textPath startOffset="22.146" xlink:href="#id151">July</textPath></text><line x1="58.133" x2="55.671" y1="173.974" y2="178.326" stroke="#e1ed5e" stroke-width=".3"/><path id="id152" fill="none" stroke="none" d="M 57.64086615596768 174.84453072859336 a86.0,86.0 0 0,1 -31.369924170532247,-30.572349798747897"/><text fill="#e1ed5e" style="font-size:6.75px;font-family:Arial" text-anchor="middle"><textPath startOffset="22.146" xlink:href="#id152">August</textPath></text><line x1="26.388" x2="22.058" y1="142.5" y2="145" stroke="#e1ed5e" stroke-width=".3"/><path id="id153" fill="none" stroke="none" d="M 25.521815274538298 143.00000000000003 a86.0,86.0 0 0,1 -11.493303480769221,-40.785679425670985"/><text fill="#e1ed5e" style="font-size:6.75px;font-family:Arial" text-anchor="middle"><textPath startOffset="21.407" xlink:href="#id153">September</textPath></text><line x1="15.003" x2="10.003" y1="100.73" y2="100.773" stroke="#e1ed5e" stroke-width=".3"/><path id="id154" fill="none" stroke="none" d="M 14.003168132696942 100.73817937305945 a86.0,86.0 0 0,1 10.791469493833604,-42.45332614584628"/><text fill="#e1ed5e" style="font-size:6.75px;font-family:Arial" text-anchor="middle"><textPath startOffset="22.146" xlink:href="#id154">October</textPath></text><line x1="26.388" x2="22.058" y1="57.5" y2="55" stroke="#e1ed5e" stroke-width=".3"/><path id="id155" fill="none" stroke="none" d="M 25.521815274538284 56.99999999999999 a86.0,86.0 0 0,1 29.574782752854787,-30.34633250058573"/><text fill="#e1ed5e" style="font-size:6.75px;font-family:Arial" text-anchor="middle"><textPath startOffset="21.407" xlink:href="#id155">November</textPath></text><line x1="56.87" x2="54.333" y1="26.755" y2="22.447" stroke="#e1ed5e" stroke-width=".3"/><path id="id156" fill="none" stroke="none" d="M 56.362301976729285 25.89364864446614 a86.0,86.0 0 0,1 42.16139366436587,-11.88097634709845"/><text fill="#e1ed5e" style="font-size:6.75px;font-family:Arial" text-anchor="middle"><textPath startOffset="22.146" xlink:href="#id156">December</textPath></text></svg>