<svg xmlns="http://www.w3.org/2000/svg" xmlns:ev="http://www.w3.org/2001/xml-events" xmlns:xlink="http://www.w3.org/1999/xlink" width="200mm" height="200mm" baseProfile="full" version="1.1" viewBox="0 0 200 200"><rect width="200" height="200" x="0" y="0" fill="#1a1a1a"/><text fill="#e1ed5e" alignment-baseline="middle" style="dominant-baseline:central;font-size:9px;font-family:Arial" x="100" y="100" text-anchor="middle">2022</text><line x1="100" x2="100" y1="15" y2="10" stroke="#e1ed5e" stroke-width=".3"/><path id="id13" fill="none" stroke="none" d="M 100.0 14.0 a86.0,86.0 0 0,1 42.46469731375804,11.215312516191453"/><text fill="#e1ed5e" style="font-size:6.75px;font-family:Arial" text-anchor="middle"><textPath startOffset="22.206" xlink:href="#id13">January</textPath></text><path fill="#edff1a" stroke="none" d="M 100.72285384407766 79.0124445844662 l 0.8061933850349293 -23.407260655363597 a44.42114000560619,44.42114000560619 0 0,0 0.7639572356543665,0.03289760559401047 l -1.2089914530786274 23.389915323245393"/><path fill="#ff5708" stroke="none" d="M 101.44485096284872 79.0497635885617 l 0.6590269990449736 -9.55584471099429 a30.5785429333541,30.5785429333541 0 0,0 0.5248003270564605,0.040734605772350566 l -0.8234175154637754 9.543084843033474"/><path fill="#ff2403" stroke="none" d="M 101.80526077348638 79.07773832637324 l 0.5271109702622376 -6.10900863345495 a27.131707140641822,27.131707140641822 0 0,0 0.4649533170982471,0.04415291990024216 l -0.632189414450729 6.09903016903953"/><path fill="red" stroke="none" d="M 102.16513564639614 79.11191278185805 l 0.3868719936285033 -3.7323370286843143 a24.75233389174553,24.75233389174553 0 0,0 0.4234220237980808,0.04757639794845908 l -0.4510607209363094 3.725124677265254"/><path fill="#ff9b0e" stroke="none" d="M 102.88285421437855 79.19881850522331 l 1.977422686713115 -14.26805698084014 a35.40443162677475,35.40443162677475 0 0,0 0.6029391895251143,0.08885756342270802 l -2.222730856666885 14.231904933256462"/><path fill="#ffb410" stroke="none" d="M 103.2404852339499 79.25152402106235 l 2.50855191421965 -16.06198620774493 a37.25669811628805,37.25669811628805 0 0,0 0.6327798139895587,0.10441409117494276 l -2.784660934348084 16.016425853630363"/><path fill="#ff3c05" stroke="none" d="M 103.59715602781102 79.31037775812273 l 1.3302510730697257 -7.651153293290049 a28.765932953279105,28.765932953279105 0 0,0 0.48710981448632806,0.08901620506979863 l -1.4617560086589547 7.627121606869512"/><path fill="#ff4106" stroke="none" d="M 104.307194497241 79.44645832069477 l 1.6572415475676767 -7.9082064305262385 a29.079986292983488,29.079986292983488 0 0,0 0.48903851147060934,0.10688487701787755 l -1.793122783191814 7.87850805541249"/><path fill="#ff3805" stroke="none" d="M 104.66035177308747 79.52364482259891 l 1.6591007625659462 -7.289650683791772 a28.476069985764763,28.476069985764763 0 0,0 0.4770098528280702,0.112892820594173 l -1.78433430235654 7.26001195105673"/><path fill="#ff5608" stroke="none" d="M 105.36241919743992 79.69619591428918 l 2.4419049442948038 -9.245819425784594 a30.562848770695226,30.562848770695226 0 0,0 0.5074918989370447,0.1387167065970391 l -2.6006947324555596 9.202416178361261"/><path fill="#ff920d" stroke="none" d="M 105.71112130821622 79.79150937346287 l 3.746895763889409 -13.258185886235449 a34.77747149731856,34.77747149731856 0 0,0 0.5746725148768682,0.16776266565050138 l -3.9745584964897045 13.191724891666244"/><path fill="#ff4106" stroke="none" d="M 106.40334571778207 80.00007090966166 l 2.463272019165768 -7.693675757146835 a29.07838818679283,29.07838818679283 0 0,0 0.4753861983823401,0.15672735540034768 l -2.5953410397905254 7.650134677487251"/><path fill="#ff7e0b" stroke="none" d="M 107.08798089147638 80.2323363322302 l 4.165942206609174 -11.618392552193196 a33.34269500415797,33.34269500415797 0 0,0 0.5385919738945143,0.19836796934999423 l -4.365316506276264 11.544961315036877"/><path fill="#ff0701" stroke="none" d="M 107.4271985657038 80.35727306442388 l 1.4837797043838568 -3.9241551586281194 a25.19530641552308,25.19530641552308 0 0,0 0.4043448773820559,0.15687953054966464 l -1.5511077467655796 3.8980329241879077"/><path fill="#ff5a08" stroke="none" d="M 107.76421540070413 80.48803036053334 l 3.6304532074395324 -9.12356099170565 a30.819345989462892,30.819345989462892 0 0,0 0.4912253443528414,0.20038315189537728 l -3.7869624213807613 9.059716953626694"/><path fill="#ff3f05" stroke="none" d="M 108.09893153111575 80.62456947434976 l 3.0565029224200178 -7.312206529623223 a28.92531226177408,28.92531226177408 0 0,0 0.45773100359878477,0.19597652773470908 l -3.181917683809118 7.258510473925723"/><line x1="143.237" x2="145.78" y1="26.818" y2="22.514" stroke="#e1ed5e" stroke-width=".3"/><path id="id14" fill="none" stroke="none" d="M 143.74570117128098 25.957352633546492 a86.0,86.0 0 0,1 28.547481713284135,27.462654790039103"/><text fill="#e1ed5e" style="font-size:6.75px;font-family:Arial" text-anchor="middle"><textPath startOffset="19.986" xlink:href="#id14">February</textPath></text><path fill="#97ff23" stroke="none" d="M 110.68208982089419 81.91981866633111 l 15.538084061382204 -26.299289944003093 a51.546435272504745,51.546435272504745 0 0,0 0.760034843410698,0.4579124890670392 l -15.988480971010539 26.02793084547744"/><path fill="#ff6309" stroke="none" d="M 110.99172775467656 82.1063720568725 l 5.454440120216573 -8.879379504982559 a31.42085876588549,31.42085876588549 0 0,0 0.45841663532778093,0.2870604549870335 l -5.606475907916617 8.78417470867258"/><path fill="#daff1c" stroke="none" d="M 111.2981086023043 82.29822771554956 l 13.420736730787889 -21.027486445785588 a45.94536751833526,45.94536751833526 0 0,0 0.6629981605007362,0.43123244608332173 l -13.780701917072905 20.79335507554274"/><path fill="#ffa90f" stroke="none" d="M 112.77801427241765 83.33499621200491 l 9.407249455292028 -12.268874057016891 a36.46032383040647,36.46032383040647 0 0,0 0.494762158095746,0.38616971218104174 l -9.617044168547205 12.105125955612625"/><path fill="#ff2403" stroke="none" d="M 113.06298171725822 83.55741782278167 l 3.8020848066266026 -4.78574442120804 a27.1122171543479,27.1122171543479 0 0,0 0.3629120047366046,0.2934496023254356 l -3.8839002099276985 4.719588721618475"/><path fill="#f6ff19" stroke="none" d="M 113.34407831869373 83.78471172551755 l 14.422313570891532 -17.52552454742185 a43.69685307260475,43.69685307260475 0 0,0 0.5766787375084401,0.4829518582706615 l -14.72184984535909 17.274671531757367"/><path fill="#ff7f0b" stroke="none" d="M 113.89432698308785 84.25364557470407 l 8.215892154622185 -9.311019522151643 a33.41756692908363,33.41756692908363 0 0,0 0.4280456345332909,0.38430359704247813 l -8.374948776751467 9.168216916339865"/><path fill="#ff7a0b" stroke="none" d="M 114.42810811169701 84.74124197986012 l 8.29203225440375 -8.769418186059045 a33.068988948128805,33.068988948128805 0 0,0 0.4102393208468241,0.39464990162245683 l -8.441754818862993 8.625385197674287"/><path fill="#ff3e05" stroke="none" d="M 114.68862486808459 84.99185889309783 l 5.529483854708281 -5.649764677435111 a28.905379978841815,28.905379978841815 0 0,0 0.352596358720929,0.3510821979018275 l -5.625916013596533 5.5537466288831645"/><path fill="#ff3b05" stroke="none" d="M 115.19652480421416 85.50635884689758 l 5.568127581317238 -5.310585419893138 a28.69456706149263,28.69456706149263 0 0,0 0.3378206980719508,0.360363566836153 l -5.658715601359653 5.21395243617893"/><path fill="#ff5107" stroke="none" d="M 115.9244219780498 86.31012108654704 l 6.952763226652428 -5.977139190231181 a30.168811776085697,30.168811776085697 0 0,0 0.3351458852888412,0.3967070177280992 l -7.0546197254283864 5.856573222873975"/><path fill="#ff6909" stroke="none" d="M 116.15771136456269 86.58626213691792 l 8.353059495385324 -6.9345062489213385 a31.85637968430434,31.85637968430434 0 0,0 0.3466300378499998,0.42492744040707314 l -8.471188025311731 6.789694638906164"/><path fill="#ffc312" stroke="none" d="M 117.04232023915458 87.72973835380427 l 14.110243855973454 -10.159202595350886 a38.3870175432252,38.3870175432252 0 0,0 0.38147076783990735,0.5395633480980301 l -14.283027243617246 9.914812746921061"/><path fill="#fff216" stroke="none" d="M 117.2510076193507 88.02491185347247 l 17.204263147516052 -11.942639655231586 a41.94309701032034,41.94309701032034 0 0,0 0.4065994469230531,0.5966345166230476 l -17.407287060107837 11.644727115338132"/><path fill="#ff3e05" stroke="none" d="M 117.65298651832404 88.62581576622439 l 6.629960657452757 -4.271820742755041 a28.88700391641868,28.88700391641868 0 0,0 0.2657224754184328,0.4203091427214603 l -6.702510729117145 4.157063952319374"/><line x1="172.234" x2="176.484" y1="55.198" y2="52.563" stroke="#e1ed5e" stroke-width=".3"/><path id="id15" fill="none" stroke="none" d="M 173.08426987136738 54.67131705675599 a86.0,86.0 0 0,1 12.851231095245387,41.99856678651699"/><text fill="#e1ed5e" style="font-size:6.75px;font-family:Arial" text-anchor="middle"><textPath startOffset="22.206" xlink:href="#id15">March</textPath></text><path fill="#ff3f05" stroke="none" d="M 117.84615892207809 88.93136811851018 l 6.740652670700729 -4.180720533686679 a28.931886446981846,28.931886446981846 0 0,0 0.2588497328173715,0.425480900797203 l -6.8116182018043245 4.064071859682394"/><path fill="#ff820c" stroke="none" d="M 118.56541770881063 90.18545643968196 l 11.148360939208882 -5.8935422719892765 a33.61030499800076,33.61030499800076 0 0,0 0.26598645901329143,0.5138011770241766 l -11.248156831382289 5.700768372704755"/><path fill="#ff6309" stroke="none" d="M 118.73160827565052 90.50648371742162 l 9.277954809920436 -4.702234520433739 a31.401512146802716,31.401512146802716 0 0,0 0.24020659545265646,0.48424183882741983 l -9.3575214183265 4.5418330931073685"/><path fill="#ff4706" stroke="none" d="M 118.89224826269711 90.83032412892265 l 7.634465837806344 -3.7055185919678837 a29.48622039921494,29.48622039921494 0 0,0 0.21769508892734937,0.458521376450393 l -7.69711912057545 3.57355479987695"/><path fill="#ff5f08" stroke="none" d="M 119.196687751892 91.48605970444005 l 9.3117856996515 -4.129878472606192 a31.186522915830025,31.186522915830025 0 0,0 0.21341871765280493,0.49259982516906353 l -9.381495127146986 3.9689795028505257"/><path fill="#ff3c05" stroke="none" d="M 119.34039704204932 91.81776055985345 l 7.131210477857549 -3.0169634832755015 a28.74314093497743,28.74314093497743 0 0,0 0.18885381427621298,0.45732449102002765 l -7.182085979019959 2.893764421802171"/><path fill="#c3ff1e" stroke="none" d="M 119.47837535516314 92.15188598940014 l 24.852238115184065 -10.013319621897502 a47.79366173527025,47.79366173527025 0 0,0 0.30088715981785186,0.7657250024050452 l -25.02091882488362 9.584045614596672"/><path fill="#ffd814" stroke="none" d="M 119.7369772167798 92.82701384747503 l 17.80495306975447 -6.470832914937269 a39.944340379891685,39.944340379891685 0 0,0 0.22929367485144114,0.6482440958233482 l -17.91369982541572 6.163391192687306"/><path fill="#fff316" stroke="none" d="M 120.6074358757038 95.95851677861258 l 20.653260006364754 -4.050470145152131 a42.04669706360774,42.04669706360774 0 0,0 0.13317645796034827,0.7114339636662056 l -20.71992218823496 3.694358104023363"/><path fill="#dfff1b" stroke="none" d="M 120.67395015179393 96.31383870115 l 24.1271706668563 -4.301869846348506 a45.5076814195577,45.5076814195577 0 0,0 0.13086305559322972,0.7723611618440785 l -24.197645583969752 3.88592289618859"/><path fill="#ff4506" stroke="none" d="M 120.73433829027371 96.67025291283417 l 8.279125907399246 -1.3295526960401438 a29.385203406126593,29.385203406126593 0 0,0 0.0759035288033228,0.5001094180899455 l -8.300785329641869 1.1868441655581161"/><path fill="#ffbc11" stroke="none" d="M 120.78858239683441 97.02765380044208 l 16.6435549688467 -2.379691236970435 a37.81281809764013,37.81281809764013 0 0,0 0.08658055147775223,0.6451256742490368 l -16.682051519382288 2.092847220656734"/><path fill="#ff9b0e" stroke="none" d="M 120.83666639777658 97.38593545837742 l 14.27259113758027 -1.7905683038533653 a35.38447053705138,35.38447053705138 0 0,0 0.07061669854108248,0.6050007482089552 l -14.30129818912494 1.5446238173195574"/><path fill="#ff850c" stroke="none" d="M 120.87857604477298 97.74499172005257 l 12.780318511407359 -1.3803491196807025 a33.85464526718746,33.85464526718746 0 0,0 0.05758977323583187,0.5799211572346962 l -12.80218541032542 1.1601524317415715"/><path fill="#ff990e" stroke="none" d="M 120.91429891909075 98.10471618934814 l 14.21903484429087 -1.288549362698448 a35.27730056289593,35.27730056289593 0 0,0 0.0495990718368729,0.6052343062519023 l -14.239108399947238 1.043601139238777"/><path fill="#ff0a01" stroke="none" d="M 120.94382443527127 98.46500227214037 l 4.409850164036325 -0.32320314768287517 a25.42167827232187,25.42167827232187 0 0,0 0.02822945299935416,0.4366971432483654 l -4.414760208040094 0.24724694018147453"/><path fill="#ff4f07" stroke="none" d="M 120.96714384426684 98.82574320788733 l 9.045311306017213 -0.5065791658012838 a30.059485585505765,30.059485585505765 0 0,0 0.024486158891677486,0.5168641135977222 l -9.052691073142386 0.3508039455805618"/><line x1="184.98" x2="189.979" y1="98.171" y2="98.064" stroke="#e1ed5e" stroke-width=".3"/><path id="id16" fill="none" stroke="none" d="M 185.9800911702706 98.14961562048488 a86.0,86.0 0 0,1 -9.607161424134198,41.387399972396054"/><text fill="#e1ed5e" style="font-size:6.75px;font-family:Arial" text-anchor="middle"><textPath startOffset="21.466" xlink:href="#id16">April</textPath></text><line x1="174.801" x2="179.201" y1="140.371" y2="142.746" stroke="#e1ed5e" stroke-width=".3"/><path id="id17" fill="none" stroke="none" d="M 175.68104954172406 140.8457921977663 a86.0,86.0 0 0,1 -30.038265399797805,32.042727171017184"/><text fill="#e1ed5e" style="font-size:6.75px;font-family:Arial" text-anchor="middle"><textPath startOffset="22.206" xlink:href="#id17">May</textPath></text><line x1="143.865" x2="146.446" y1="172.807" y2="177.09" stroke="#e1ed5e" stroke-width=".3"/><path id="id18" fill="none" stroke="none" d="M 144.38136562736335 173.6633856474863 a86.0,86.0 0 0,1 -40.68145358897372,12.25698825130547"/><text fill="#e1ed5e" style="font-size:6.75px;font-family:Arial" text-anchor="middle"><textPath startOffset="21.466" xlink:href="#id18">June</textPath></text><path fill="#ff900d" stroke="none" d="M 110.21172684928248 118.3499491758327 l 6.619291847252628 11.894527808058623 a34.61230385848718,34.61230385848718 0 0,0 -0.523102651112123,0.2852372736591701 l -6.413566384271856 -12.006705733477563"/><path fill="#ff1a02" stroke="none" d="M 103.7750983002368 120.6578951692458 l 0.9811943097523365 5.369240104357751 a26.458157342156234,26.458157342156234 0 0,0 -0.4487190452553941,0.07801555773053291 l -0.8886262930248924 -5.385334240609291"/><path fill="#ff1a02" stroke="none" d="M 101.26447882468166 120.96189622390904 l 0.32860508917175363 5.447450477947545 a26.45735265621716,26.45735265621716 0 0,0 -0.4548295231946054,0.02350949110121825 l -0.23478749756366862 -5.452299775810964"/><line x1="102.195" x2="102.324" y1="184.972" y2="189.97" stroke="#e1ed5e" stroke-width=".3"/><path id="id19" fill="none" stroke="none" d="M 102.22038585953345 185.97133177190398 a86.0,86.0 0 0,1 -42.740103519485714,-10.115201625700543"/><text fill="#e1ed5e" style="font-size:6.75px;font-family:Arial" text-anchor="middle"><textPath startOffset="22.206" xlink:href="#id19">July</textPath></text><path fill="#ff4b07" stroke="none" d="M 100.54218724476979 120.99299961872073 l 0.22713781249748727 8.794570615878964 a29.797503276700034,29.797503276700034 0 0,0 -0.5128580392740335,0.008829316245884783 l -0.07572008333078582 -8.797177409404009"/><path fill="#ff0e01" stroke="none" d="M 98.01472825383883 120.90594882070398 l -0.44411944054916885 4.676809767909131 a25.697849687110473,25.697849687110473 0 0,0 -0.4400051945149561,-0.04560833748416851 l 0.5245572316697183 -4.668472061969202"/><path fill="#ff6509" stroke="none" d="M 96.93821686468263 120.77559828337769 l -1.5399860870418223 10.449509613310784 a31.562377019731727,31.562377019731727 0 0,0 -0.5368071014626127,-0.08383822925283081 l 1.7196290521129522 -10.421453076710849"/><path fill="#ff0f01" stroke="none" d="M 95.51606077576429 120.51570834832081 l -1.0086425086993458 4.61491882502523 a25.723858113018167,25.723858113018167 0 0,0 -0.4317686507007544,-0.09826913918144956 l 1.087931308792963 -4.596872952266094"/><path fill="#ff6509" stroke="none" d="M 92.06813273071674 119.44442032107085 l -3.987031216247444 9.773929412834338 a31.555856861780562,31.555856861780562 0 0,0 -0.5011799468293648,-0.20949325842157243 l 4.1546826225742715 -9.703851111392792"/><path fill="#ff3304" stroke="none" d="M 91.7346041902142 119.30500536409082 l -2.7967490660341707 6.532204502279593 a28.105737188917473,28.105737188917473 0 0,0 -0.4431061193692177,-0.19424470104296498 l 2.9087758600611315 -6.483095247942176"/><line x1="58.667" x2="56.235" y1="174.274" y2="178.643" stroke="#e1ed5e" stroke-width=".3"/><path id="id20" fill="none" stroke="none" d="M 58.180547188652646 175.14741091055294 a86.0,86.0 0 0,1 -31.652253787137756,-30.449443065178592"/><text fill="#e1ed5e" style="font-size:6.75px;font-family:Arial" text-anchor="middle"><textPath startOffset="22.206" xlink:href="#id20">August</textPath></text><path fill="#ff1202" stroke="none" d="M 89.4739219176387 118.17145234162733 l -2.470970154044074 4.265702386061236 a25.929696780596664,25.929696780596664 0 0,0 -0.38429308250540983,-0.227047126857442 l 2.5440311075778657 -4.222536686910045"/><path fill="#ff1a02" stroke="none" d="M 89.1626897886671 117.98757091392108 l -2.819290684874885 4.679407540453427 a26.463081080807303,26.463081080807303 0 0,0 -0.3881514003222119,-0.23843429255926143 l 2.8994212851294057 -4.630184781065787"/><path fill="red" stroke="none" d="M 88.54995079064634 117.60387380957326 l -2.0485205209884954 3.1494970972127683 a24.757095725459045,24.757095725459045 0 0,0 -0.35523520608559767,-0.23543052420980157 l 2.102430425814055 -3.1137685519116483"/><path fill="#ff4d07" stroke="none" d="M 87.36589467227662 116.77436683061367 l -5.341185885259145 7.0915200582689515 a29.877945899684363,29.877945899684363 0 0,0 -0.40814877763072704,-0.31295107833051905 l 5.462463391383359 -6.998529638111066"/><path fill="#ff2303" stroke="none" d="M 85.44109423537348 115.13401014063109 l -4.2269460052575125 4.393918385191795 a27.097014950538412,27.097014950538412 0 0,0 -0.3333578620450197,-0.3262608305404395 l 4.301953819678326 -4.320507451728786"/><path fill="#ff0601" stroke="none" d="M 84.9287848128048 114.62390073753433 l -2.9711341813889436 2.882950764543714 a25.13993278141094,25.13993278141094 0 0,0 -0.2986785013207339,-0.3131632145338769 l 3.020319234088635 -2.831380433427337"/><path fill="#ff6509" stroke="none" d="M 84.67929136418377 114.36230785411682 l -7.709803174896279 7.227509466086019 a31.567779240597513,31.567779240597513 0 0,0 -0.36822099602772473,-0.39963116665814413 l 7.833070578919733 -7.093727044626531"/><path fill="#ff1d03" stroke="none" d="M 82.05923443525364 110.91462005526583 l -4.8569355314057505 2.954812924058397 a26.685133434882086,26.685133434882086 0 0,0 -0.23536176412784257,-0.3944798546616439 l 4.9070781712318245 -2.870770975510642"/><line x1="26.633" x2="22.317" y1="142.922" y2="145.446" stroke="#e1ed5e" stroke-width=".3"/><path id="id21" fill="none" stroke="none" d="M 25.769776987707644 143.4266507060508 a86.0,86.0 0 0,1 -11.730757126820373,-40.83630448921669"/><text fill="#e1ed5e" style="font-size:6.75px;font-family:Arial" text-anchor="middle"><textPath startOffset="21.466" xlink:href="#id21">September</textPath></text><path fill="#ffd513" stroke="none" d="M 81.35079622478065 109.6543875284942 l -16.616596754297106 8.602140145193207 a39.711175878935606,39.711175878935606 0 0,0 -0.30903110411843693,-0.6097476862141292 l 16.76220652820181 -8.314838247276393"/><path fill="#ff5107" stroke="none" d="M 81.02952815118164 109.00673069616217 l -8.309864243931543 3.94532671423355 a30.198882901451505,30.198882901451505 0 0,0 -0.21890650098488865,-0.47150512828488084 l 8.376545361756257 -3.801701518669842"/><path fill="#ff5808" stroke="none" d="M 80.87730276802145 108.67885076344099 l -8.824798892928229 4.005141726608775 a30.69114212829685,30.69114212829685 0 0,0 -0.2141933570800621,-0.4829494748207046 l 8.89243333473957 -3.852643915295375"/><path fill="red" stroke="none" d="M 80.73074385275274 108.34839909993369 l -3.4615336407588244 1.499708349407637 a24.772444867640615,24.772444867640615 0 0,0 -0.166151169194041,-0.3927322837127705 l 3.4868357911451717 -1.4399015400287076"/><path fill="#ff4706" stroke="none" d="M 80.58989483394504 108.01547362559985 l -7.855642925194928 3.244016358507334 a29.499103947030434,29.499103947030434 0 0,0 -0.18977389642825643,-0.47100324769095714 l 7.910319435880572 -3.1083137429735714"/><path fill="#91ff24" stroke="none" d="M 80.45479744820244 107.68017299344265 l -28.963039644114083 11.380856979774613 a52.11882984658338,52.11882984658338 0 0,0 -0.3209172780978945,-0.8378137466875797 l 29.15465120180549 -10.880619666253875"/><path fill="#67ff28" stroke="none" d="M 80.32549172779594 107.34259656027581 l -32.69825332490939 12.20310459955452 a55.90116806594897,55.90116806594897 0 0,0 -0.3286875256006762,-0.9044069047779741 l 32.90346511151529 -11.638449897770428"/><path fill="#ffc011" stroke="none" d="M 80.20201598880116 107.00284435728193 l -16.151838287553716 5.713147841100647 a38.132481966182226,38.132481966182226 0 0,0 -0.2135585484816675,-0.6207011064283907 l 16.247787666978613 -5.43427403158296"/><path fill="#ff2904" stroke="none" d="M 80.0844068197444 106.66101706037122 l -6.158285939270525 2.0597150852023343 a27.493605465535083,27.493605465535083 0 0,0 -0.14624994180963186,-0.4501110382203447 l 6.192828132096406 -1.953405147004186"/><path fill="#5cff2a" stroke="none" d="M 79.67330655649465 105.27499134158121 l -34.72586900885816 9.011729274105729 a56.87613751409354,56.87613751409354 0 0,0 -0.23776577906360902,-0.9497560966094398 l 34.875846102216826 -8.412645338098898"/><path fill="#ffcd13" stroke="none" d="M 79.58551787078972 104.9243191809786 l -17.6151614450595 4.249075574433727 a39.12039061313966,39.12039061313966 0 0,0 -0.15227040901398373,-0.6559769367453858 l 17.685692420004038 -3.9452299803397666"/><path fill="#ff2503" stroke="none" d="M 79.50377843672027 104.57218783832718 l -6.075384858551525 1.3552644655828678 a27.224712278586757,27.224712278586757 0 0,0 -0.09809447738141847,-0.45826474099292863 l 6.097813374657384 -1.2504859051737753"/><path fill="#ff3805" stroke="none" d="M 79.35854240842038 103.8639653848113 l -7.341154244743098 1.3742230053472249 a28.468670197132496,28.468670197132496 0 0,0 -0.08602087647049365,-0.48245075784379243 l 7.36372156355278 -1.2476534967702189"/><path fill="#ff2c04" stroke="none" d="M 79.29508885075956 103.50808413554451 l -6.569153303582475 1.1130278377989031 a27.66277765602934,27.66277765602934 0 0,0 -0.07550389927320415,-0.47016285284834997 l 6.58733895721697 -0.9997857552573394"/><path fill="#95ff23" stroke="none" d="M 79.18660465613746 102.79330883721812 l -30.433704274718252 4.0844241746900485 a51.706560809048554,51.706560809048554 0 0,0 -0.1107960570687265,-0.8831535880506762 l 30.499501841033826 -3.559952832351964"/><path fill="#b5ff1f" stroke="none" d="M 79.1416061653843 102.43462659150553 l -27.77542200891277 3.241993681266252 a48.96398739097424,48.96398739097424 0 0,0 -0.09050806189757787,-0.8379922458811092 l 27.8271123723114 -2.7634051135003608"/><path fill="#ff800b" stroke="none" d="M 79.10278846688536 102.07522291339032 l -12.403845272176659 1.2317788850526397 a33.464856868723395,33.464856868723395 0 0,0 -0.0519906888510471,-0.5737129191570844 l 12.423210557304781 -1.018084577346989"/><path fill="#ff2603" stroke="none" d="M 79.07016306316243 101.71520430193888 l -6.259624699968352 0.5129774898060361 a27.28060883111674,27.28060883111674 0 0,0 -0.03432607462143945,-0.468352016016252 l 6.267527333254128 -0.40515233729302347"/><path fill="#ff750a" stroke="none" d="M 79.04373962182676 101.35467743843564 l -11.662310761137824 0.753887811233417 a32.686652177645975,32.686652177645975 0 0,0 -0.03146269132286837,-0.5617874890103949 l 11.673559803348224 -0.5530286058875845"/><path fill="#ff3104" stroke="none" d="M 79.0235259727143 100.99374915477108 l -6.988043280894418 0.33105478522555704 a27.99588065696338,27.99588065696338 0 0,0 -0.018661077054752805,-0.48155948015123373 l 6.992706490800371 -0.2107180580603265"/><line x1="15.007" x2="10.008" y1="101.097" y2="101.162" stroke="#e1ed5e" stroke-width=".3"/><path id="id22" fill="none" stroke="none" d="M 14.007167355692545 101.11028546245083 a86.0,86.0 0 0,1 10.666146001902534,-42.60595125391555"/><text fill="#e1ed5e" style="font-size:6.75px;font-family:Arial" text-anchor="middle"><textPath startOffset="22.206" xlink:href="#id22">October</textPath></text><path fill="#ffb010" stroke="none" d="M 79.00019446554 99.90962569577889 l -15.920403388136187 -0.06851470013669209 a36.92055081663675,36.92055081663675 0 0,0 0.008205140374822142,-0.6354971644119055 l 15.91686524064365 0.3425481226090696"/><path fill="#7aff26" stroke="none" d="M 79.00486145842228 99.54816195383935 l -33.14243932351227 -0.7132610722847987 a54.150113509156036,54.150113509156036 0 0,0 0.02807633243567585,-0.9317167871991985 l 33.12525129662095 1.2836480069089917"/><path fill="#34ff5a" stroke="none" d="M 79.01574976396665 99.18683210126434 l -43.58224191104386 -1.6888704470430311 a64.61495263530207,64.61495263530207 0 0,0 0.05263469970254267,-1.1110353210803765 l 43.54671360310782 2.4388168747464167"/><path fill="#50ff2b" stroke="none" d="M 79.03285615573316 98.82574320788736 l -36.967016563207864 -2.0703234835371696 a58.024945008885155,58.024945008885155 0 0,0 0.0644336868861251,-0.996760617103465 l 36.92590228531732 2.7063431648936462"/><path fill="#46ff2c" stroke="none" d="M 79.05617556472873 98.46500227214037 l -37.8702987430417 -2.7755591011370897 a58.97187452853929,58.97187452853929 0 0,0 0.08291309693271308,-1.011749793752467 l 37.81691116228949 3.427022812097335"/><path fill="#ff5b08" stroke="none" d="M 79.08570108090925 98.10471618934814 l -9.868244357041599 -0.8942744789970024 a30.908681725339083,30.908681725339083 0 0,0 0.052578426314394446,-0.5294575776320607 l 9.851388805044975 1.0640075873334933"/><path fill="#ff5f08" stroke="none" d="M 79.12142395522702 97.74499172005258 l -10.090742569826215 -1.0898591933175812 a31.149427504631078,31.149427504631078 0 0,0 0.062164833850446986,-0.5325903330063602 l 10.07048738297218 1.263393264648803"/><path fill="#ff860c" stroke="none" d="M 79.16333360222342 97.38593545837743 l -12.805668284121356 -1.606535457940349 a33.906048829156475,33.906048829156475 0 0,0 0.07763516589744243,-0.5784721613593712 l 12.77611711916608 1.8267259613643798"/><path fill="#ff3204" stroke="none" d="M 79.21141760316559 97.0276538004421 l -6.977834665447696 -0.9976890176092585 a28.04879847876088,28.04879847876088 0 0,0 0.07245152445625919,-0.47736502250687984 l 6.959627247552135 1.1176531525082305"/><path fill="#ff3905" stroke="none" d="M 79.26566170972629 96.67025291283419 l -7.425480008688304 -1.1924648900580586 a28.520620045810773,28.520620045810773 0 0,0 0.08201462632645352,-0.4840549671605448 l 7.403853520841627 1.3201056455344313"/><path fill="#ff3705" stroke="none" d="M 79.32604984820605 96.31383870115002 l -7.295619655189302 -1.3008075682989153 a28.410679218730778,28.410679218730778 0 0,0 0.08998646483157219,-0.4807112933615978 l 7.272147466447868 1.4261969391230858"/><path fill="#caff1d" stroke="none" d="M 79.3925641242962 95.95851677861259 l -25.732422257056665 -5.046583836282284 a47.22261549945182,47.22261549945182 0 0,0 0.1633018850621753,-0.7963179870472055 l 25.641741076079494 5.488777479492892"/><path fill="#ff4706" stroke="none" d="M 79.46518482838121 95.60439243477599 l -8.313225052661434 -1.7794986040776577 a29.501548450612514,29.501548450612514 0 0,0 0.11056845024735934,-0.49565668216455583 l 8.281362215412036 1.9223334557921727"/><path fill="#ff6809" stroke="none" d="M 79.54389044137918 95.25157060432595 l -10.521040482178147 -2.442224791350776 a31.800775655438812,31.800775655438812 0 0,0 0.12836489056407624,-0.5321553433336916 l 10.477442791353255 2.6229653663438643"/><path fill="#ff910d" stroke="none" d="M 79.71946130924805 94.55025226153421 l -13.200306235840346 -3.547161155469261 a34.66859308717746,34.66859308717746 0 0,0 0.15982754555668527,-0.5749847189824808 l 13.137291919717299 3.7738571778706844"/><path fill="#ffc312" stroke="none" d="M 79.81627453868168 94.20196356495316 l -16.655935704496397 -4.784633157022743 a38.32953861588933,38.32953861588933 0 0,0 0.1876214541020252,-0.6325662716109985 l 16.571108353282668 5.070628815380281"/><path fill="#ffae10" stroke="none" d="M 80.02781315780177 93.51064311812611 l -15.029867630926027 -4.883500025061273 a36.803338049220216,36.803338049220216 0 0,0 0.200950968521709,-0.6008178183578573 l 14.943579368632546 5.141490946341452"/><path fill="#ff790b" stroke="none" d="M 80.2630227832202 92.82701384747504 l -11.22487862297288 -4.079444285820303 a32.9431890959486,32.9431890959486 0 0,0 0.19827942580243418,-0.5312902828221465 l 11.152994608668818 4.272057705671791"/><path fill="#ff770a" stroke="none" d="M 80.38941819471856 92.48833698450439 l -11.04399719691264 -4.230307193891813 a32.826469170471256,32.826469170471256 0 0,0 0.2066605218545768,-0.525928486579219 l 10.969543125176372 4.419784685366795"/><path fill="#ff3805" stroke="none" d="M 80.52162464483688 92.15188598940014 l -6.92464763785002 -2.7900388586911897 a28.465591854728512,28.465591854728512 0 0,0 0.18703020694768444,-0.4529084812267566 l 6.875595744016136 2.9088219103712576"/><path fill="#ffb911" stroke="none" d="M 80.65960295795068 91.81776055985345 l -15.271938566833423 -6.461018240595476 a37.58242636933575,37.58242636933575 0 0,0 0.25718780075842657,-0.593624903581896 l 15.158460056232316 6.722942288763972"/><path fill="#ff4606" stroke="none" d="M 80.95270993114464 91.15688171328213 l -7.617512470706405 -3.536595682928736 a29.398452551862025,29.398452551862025 0 0,0 0.21704710389991702,-0.4571565547258331 l 7.555507172964736 3.6671946532951014"/><path fill="#ffa30f" stroke="none" d="M 81.43458229118936 90.18545643968196 l -13.238410057140749 -6.998439475643989 a35.97443340949024,35.97443340949024 0 0,0 0.2941199453149472,-0.5449595895904036 l 13.11598201260733 7.225280048566866"/><path fill="#88ff25" stroke="none" d="M 81.6062741919709 89.86733742301443 l -27.961261917387613 -15.40318884779349 a52.92319524567584,52.92319524567584 0 0,0 0.44642569696001133,-0.7941415013739747 l 27.69197857913517 15.882213859102249"/><line x1="26.266" x2="21.929" y1="57.711" y2="55.224" stroke="#e1ed5e" stroke-width=".3"/><path id="id23" fill="none" stroke="none" d="M 25.398753493254645 57.213857153982495 a86.0,86.0 0 0,1 29.58750427330803,-30.492523968695096"/><text fill="#e1ed5e" style="font-size:6.75px;font-family:Arial" text-anchor="middle"><textPath startOffset="21.466" xlink:href="#id23">November</textPath></text><path fill="#ff0100" stroke="none" d="M 81.78341655067845 89.55222093294921 l -3.2968907542948345 -1.8908697289423788 a24.80064165340346,24.80064165340346 0 0,0 0.21557700955986123,-0.3684909896521665 l 3.263854070264648 1.947340130948437"/><path fill="#ff4606" stroke="none" d="M 81.96595687620814 89.24020034530311 l -7.210648525435908 -4.302148607583721 a29.396543026692925,29.396543026692925 0 0,0 0.26300695331976554,-0.4323142782356011 l 7.135525773829926 4.425630659026397"/><path fill="#ff920d" stroke="none" d="M 82.54541684631803 88.32363383020206 l -11.458179117785749 -7.665029513476311 a34.78559197632529,34.78559197632529 0 0,0 0.3372140701718857,-0.4948200379465074 l 11.324540581945122 7.861127574693234"/><path fill="#ff6209" stroke="none" d="M 82.7489923806493 88.02491185347247 l -8.507484532504206 -5.905618931364882 a31.356332750220687,31.356332750220687 0 0,0 0.31160337781911474,-0.4407408797449366 l 8.404568534881212 6.0511863114416045"/><path fill="#ff740a" stroke="none" d="M 83.39014120810768 87.1503855733568 l -9.176702045356764 -7.099222483973234 a32.60219032365036,32.60219032365036 0 0,0 0.3472069918849108,-0.4409176202717644 l 9.053140972877882 7.256132498198046"/><path fill="#ff4206" stroke="none" d="M 83.6137871275137 86.86637796730984 l -6.383924985496472 -5.116744088277912 a29.18141603179872,29.18141603179872 0 0,0 0.31752369364819716,-0.38924650398853905 l 6.294902799771883 5.225874761874533"/><path fill="#ffa10e" stroke="none" d="M 84.07557802195018 86.31012108654704 l -11.284577062138712 -9.701105244708335 a35.881301100382814,35.881301100382814 0 0,0 0.4066686479668755,-0.46489256441011345 l 11.115916550593994 9.893913365321392"/><path fill="#ff2803" stroke="none" d="M 84.31358615837235 86.03803664274999 l -4.779263227825341 -4.253865716870952 a27.398181815016944,27.398181815016944 0 0,0 0.3165877644272235,-0.3495841167245584 l 4.705331822782072 4.335502620865066"/><path fill="#ff4106" stroke="none" d="M 84.5562425177563 85.77008943001954 l -5.964583268338648 -5.495779546735659 a29.1104775686308,29.1104775686308 0 0,0 0.3427172060957887,-0.36558682019683053 l 5.8690987402724035 5.59763578381054"/><path fill="#ff7c0b" stroke="none" d="M 85.83668400450813 84.49514656593479 l -8.244371766496617 -9.025271760946552 a33.22395992234701,33.22395992234701 0 0,0 0.42556572226967376,-0.38207710732650274 l 8.087795056630972 9.165847877042333"/><path fill="#ff6e0a" stroke="none" d="M 86.10567301691215 84.25364557470407 l -7.4313469402736505 -8.42189930619309 a32.2317988439239,32.2317988439239 0 0,0 0.41917638785930345,-0.36350563291886895 l 7.285276753767574 8.54856993253164"/><path fill="#ff3d05" stroke="none" d="M 86.37877921826538 84.01681056812374 l -5.078765865416022 -5.959442124008645 a28.829994453709634,28.829994453709634 0 0,0 0.38047693677887023,-0.3186384926213721 l 4.9754313916780415 6.04598177402383"/><path fill="#65ff29" stroke="none" d="M 87.80319425747018 82.90503203632743 l -20.353579506653833 -28.527451937603814 a56.04402535077805,56.04402535077805 0 0,0 0.7901376532737767,-0.5535419204892008 l 19.859510713796396 28.873578700856957"/><line x1="56.763" x2="54.22" y1="26.818" y2="22.514" stroke="#e1ed5e" stroke-width=".3"/><path id="id24" fill="none" stroke="none" d="M 56.25429882871897 25.957352633546506 a86.0,86.0 0 0,1 42.265352541879196,-11.944610805530505"/><text fill="#e1ed5e" style="font-size:6.75px;font-family:Arial" text-anchor="middle"><textPath startOffset="22.206" xlink:href="#id24">December</textPath></text><path fill="#ff4406" stroke="none" d="M 90.58718382345135 81.22770947309562 l -3.706481013186979 -7.391957635946655 a29.26916194016937,29.26916194016937 0 0,0 0.4523182876242775,-0.22195061934047666 l 3.5786914585522758 7.454663415421962"/><path fill="#ff4406" stroke="none" d="M 90.91171255644093 81.06846463323043 l -3.598361471215022 -7.495637420998061 a29.314612776587445,29.314612776587445 0 0,0 0.45678000132449026,-0.21446433537297463 l 3.468803258590923 7.556466739011043"/><path fill="#ffc212" stroke="none" d="M 91.23893434514133 80.91482961587045 l -7.203650241982679 -15.692485100790318 a38.26692402969745,38.26692402969745 0 0,0 0.6010055150603666,-0.26965365571732025 l 6.932462608455538 15.814159087024168"/><path fill="#ff840c" stroke="none" d="M 91.56875222667455 80.76684994638697 l -5.116586359768974 -11.6718279269466 a33.74405834627355,33.74405834627355 0 0,0 0.5339856507875338,-0.2286247880932898 l 4.914916951191131 11.758172243002676"/><path fill="#4dd2ff" stroke="none" d="M 93.25333710446033 80.11325718540243 l -20.239988686619004 -59.66022844379273 a84.0,84.0 0 0,0 1.3732687110303627,-0.45274510296306447 l 19.21003715334623 59.99978727101503"/><path fill="#ff9c0e" stroke="none" d="M 93.59665428221793 80.00007090966166 l -4.406270157704308 -13.762350900754418 a35.4505196798652,35.4505196798652 0 0,0 0.5827637113569354,-0.18106752186698696 l 4.168721073636645 13.83615855750393"/><path fill="#ffcd13" stroke="none" d="M 93.94186890950719 79.89281104454417 l -5.220872294616059 -17.328292203001798 a39.097713065172144,39.097713065172144 0 0,0 0.6460613761075015,-0.18860303185519808 l 4.921820700785135 17.415593563775698"/><path fill="#ff3705" stroke="none" d="M 95.33964822691252 79.52364482259891 l -1.6500602253777108 -7.249928950438963 a28.435332442721478,28.435332442721478 0 0,0 0.4781973592028821,-0.1045154210349877 l 1.5250201420213079 7.2772578695698185"/><path fill="#ffe115" stroke="none" d="M 95.692805502759 79.44645832069477 l -4.034256489031041 -19.2511062468669 a40.66927342703453,40.66927342703453 0 0,0 0.6864074573860298,-0.13768687856554174 l 3.7022826221778744 19.317697081509653"/><path fill="#ff6609" stroke="none" d="M 96.04723909329186 79.375362276772 l -2.0058854443285106 -10.46626942028357 a31.65675241308214,31.65675241308214 0 0,0 0.5360616956252269,-0.09796184845538396 l 1.8254286276003904 10.499246750089691"/></svg>